<svg version="1.1" viewBox="0.0 0.0 960.0 720.0" fill="none" stroke="none" stroke-linecap="square" stroke-miterlimit="10" xmlns:xlink="http://www.w3.org/1999/xlink" xmlns="http://www.w3.org/2000/svg"><clipPath id="p.0"><path d="m0 0l960.0 0l0 720.0l-960.0 0l0 -720.0z" clip-rule="nonzero"/></clipPath><g clip-path="url(#p.0)"><path fill="#000000" fill-opacity="0.0" d="m0 0l960.0 0l0 720.0l-960.0 0z" fill-rule="evenodd"/><path fill="#cfe2f3" d="m569.50134 255.66689l0 0c0 -6.16658 4.9989624 -11.165573 11.165527 -11.165573l44.66101 0l0 0c2.9613037 0 5.8012695 1.1763763 7.8952637 3.2703247c2.093933 2.0939484 3.2702637 4.93396 3.2702637 7.8952484l0 141.1649c0 6.1665955 -4.9989624 11.165588 -11.165527 11.165588l-44.66101 0c-6.166565 0 -11.165527 -4.998993 -11.165527 -11.165588z" fill-rule="evenodd"/><path stroke="#000000" stroke-width="1.0" stroke-linejoin="round" stroke-linecap="butt" d="m569.50134 255.66689l0 0c0 -6.16658 4.9989624 -11.165573 11.165527 -11.165573l44.66101 0l0 0c2.9613037 0 5.8012695 1.1763763 7.8952637 3.2703247c2.093933 2.0939484 3.2702637 4.93396 3.2702637 7.8952484l0 141.1649c0 6.1665955 -4.9989624 11.165588 -11.165527 11.165588l-44.66101 0c-6.166565 0 -11.165527 -4.998993 -11.165527 -11.165588z" fill-rule="evenodd"/><path fill="#cfe2f3" d="m390.56693 115.48356l0 0c0 -17.082031 13.847717 -30.929756 30.929749 -30.929756l123.7153 0l0 0c8.203064 0 16.07019 3.258667 21.870667 9.05912c5.800415 5.800453 9.059082 13.667557 9.059082 21.870636l0 517.57355c0 17.082031 -13.847717 30.929749 -30.929749 30.929749l-123.7153 0c-17.082031 0 -30.929749 -13.847717 -30.929749 -30.929749z" fill-rule="evenodd"/><path stroke="#000000" stroke-width="1.0" stroke-linejoin="round" stroke-linecap="butt" d="m390.56693 115.48356l0 0c0 -17.082031 13.847717 -30.929756 30.929749 -30.929756l123.7153 0l0 0c8.203064 0 16.07019 3.258667 21.870667 9.05912c5.800415 5.800453 9.059082 13.667557 9.059082 21.870636l0 517.57355c0 17.082031 -13.847717 30.929749 -30.929749 30.929749l-123.7153 0c-17.082031 0 -30.929749 -13.847717 -30.929749 -30.929749z" fill-rule="evenodd"/><path fill="#000000" d="m444.44376 120.53282l5.125 -13.359375l1.90625 0l5.46875 13.359375l-2.015625 0l-1.546875 -4.046875l-5.59375 0l-1.46875 4.046875l-1.875 0zm3.859375 -5.484375l4.53125 0l-1.40625 -3.703125q-0.625 -1.6875 -0.9375 -2.765625q-0.265625 1.28125 -0.71875 2.546875l-1.46875 3.921875zm9.193573 2.59375l1.625 -0.25q0.125 0.96875 0.75 1.5q0.625 0.515625 1.75 0.515625q1.125 0 1.671875 -0.453125q0.546875 -0.46875 0.546875 -1.09375q0 -0.546875 -0.484375 -0.875q-0.328125 -0.21875 -1.671875 -0.546875q-1.8125 -0.46875 -2.515625 -0.796875q-0.6875 -0.328125 -1.046875 -0.90625q-0.359375 -0.59375 -0.359375 -1.3125q0 -0.640625 0.296875 -1.1875q0.296875 -0.5625 0.8125 -0.921875q0.375 -0.28125 1.03125 -0.46875q0.671875 -0.203125 1.421875 -0.203125q1.140625 0 2.0 0.328125q0.859375 0.328125 1.265625 0.890625q0.421875 0.5625 0.578125 1.5l-1.609375 0.21875q-0.109375 -0.75 -0.640625 -1.171875q-0.515625 -0.421875 -1.46875 -0.421875q-1.140625 0 -1.625 0.375q-0.46875 0.375 -0.46875 0.875q0 0.3125 0.1875 0.578125q0.203125 0.265625 0.640625 0.4375q0.234375 0.09375 1.4375 0.421875q1.75 0.453125 2.4375 0.75q0.6875 0.296875 1.078125 0.859375q0.390625 0.5625 0.390625 1.40625q0 0.828125 -0.484375 1.546875q-0.46875 0.71875 -1.375 1.125q-0.90625 0.390625 -2.046875 0.390625q-1.875 0 -2.875 -0.78125q-0.984375 -0.78125 -1.25 -2.328125zm13.5625 1.421875l0.234375 1.453125q-0.6875 0.140625 -1.234375 0.140625q-0.890625 0 -1.390625 -0.28125q-0.484375 -0.28125 -0.6875 -0.734375q-0.203125 -0.46875 -0.203125 -1.9375l0 -5.578125l-1.203125 0l0 -1.265625l1.203125 0l0 -2.390625l1.625 -0.984375l0 3.375l1.65625 0l0 1.265625l-1.65625 0l0 5.671875q0 0.6875 0.078125 0.890625q0.09375 0.203125 0.28125 0.328125q0.203125 0.109375 0.578125 0.109375q0.265625 0 0.71875 -0.0625zm1.5895386 1.46875l0 -9.671875l1.46875 0l0 1.46875q0.5625 -1.03125 1.03125 -1.359375q0.484375 -0.328125 1.0625 -0.328125q0.828125 0 1.6875 0.53125l-0.5625 1.515625q-0.609375 -0.359375 -1.203125 -0.359375q-0.546875 0 -0.96875 0.328125q-0.421875 0.328125 -0.609375 0.890625q-0.28125 0.875 -0.28125 1.921875l0 5.0625l-1.625 0zm5.618927 -4.84375q0 -2.6875 1.484375 -3.96875q1.25 -1.078125 3.046875 -1.078125q2.0 0 3.265625 1.3125q1.265625 1.296875 1.265625 3.609375q0 1.859375 -0.5625 2.9375q-0.5625 1.0625 -1.640625 1.65625q-1.0625 0.59375 -2.328125 0.59375q-2.03125 0 -3.28125 -1.296875q-1.25 -1.3125 -1.25 -3.765625zm1.6875 0q0 1.859375 0.796875 2.796875q0.8125 0.921875 2.046875 0.921875q1.21875 0 2.03125 -0.921875q0.8125 -0.9375 0.8125 -2.84375q0 -1.796875 -0.8125 -2.71875q-0.8125 -0.921875 -2.03125 -0.921875q-1.234375 0 -2.046875 0.921875q-0.796875 0.90625 -0.796875 2.765625zm15.610107 1.296875l1.609375 0.21875q-0.265625 1.65625 -1.359375 2.609375q-1.078125 0.9375 -2.671875 0.9375q-1.984375 0 -3.1875 -1.296875q-1.203125 -1.296875 -1.203125 -3.71875q0 -1.578125 0.515625 -2.75q0.515625 -1.171875 1.578125 -1.75q1.0625 -0.59375 2.3125 -0.59375q1.578125 0 2.578125 0.796875q1.0 0.796875 1.28125 2.265625l-1.59375 0.234375q-0.234375 -0.96875 -0.8125 -1.453125q-0.578125 -0.5 -1.390625 -0.5q-1.234375 0 -2.015625 0.890625q-0.78125 0.890625 -0.78125 2.8125q0 1.953125 0.75 2.84375q0.75 0.875 1.953125 0.875q0.96875 0 1.609375 -0.59375q0.65625 -0.59375 0.828125 -1.828125zm2.9375 7.265625l-0.1875 -1.53125q0.546875 0.140625 0.9375 0.140625q0.546875 0 0.875 -0.1875q0.328125 -0.171875 0.546875 -0.5q0.15625 -0.25 0.5 -1.21875q0.046875 -0.140625 0.140625 -0.40625l-3.671875 -9.6875l1.765625 0l2.015625 5.59375q0.390625 1.078125 0.703125 2.25q0.28125 -1.125 0.671875 -2.203125l2.078125 -5.640625l1.640625 0l-3.6875 9.828125q-0.59375 1.609375 -0.921875 2.203125q-0.4375 0.8125 -1.0 1.1875q-0.5625 0.375 -1.34375 0.375q-0.484375 0 -1.0625 -0.203125zm12.984375 -5.1875l0.234375 1.453125q-0.6875 0.140625 -1.234375 0.140625q-0.890625 0 -1.390625 -0.28125q-0.484375 -0.28125 -0.6875 -0.734375q-0.203125 -0.46875 -0.203125 -1.9375l0 -5.578125l-1.203125 0l0 -1.265625l1.203125 0l0 -2.390625l1.625 -0.984375l0 3.375l1.65625 0l0 1.265625l-1.65625 0l0 5.671875q0 0.6875 0.078125 0.890625q0.09375 0.203125 0.28125 0.328125q0.203125 0.109375 0.578125 0.109375q0.265625 0 0.71875 -0.0625zm8.230194 -1.640625l1.6875 0.203125q-0.40625 1.484375 -1.484375 2.3125q-1.078125 0.8125 -2.765625 0.8125q-2.125 0 -3.375 -1.296875q-1.234375 -1.3125 -1.234375 -3.671875q0 -2.453125 1.25 -3.796875q1.265625 -1.34375 3.265625 -1.34375q1.9375 0 3.15625 1.328125q1.234375 1.3125 1.234375 3.703125q0 0.15625 0 0.4375l-7.21875 0q0.09375 1.59375 0.90625 2.453125q0.8125 0.84375 2.015625 0.84375q0.90625 0 1.546875 -0.46875q0.640625 -0.484375 1.015625 -1.515625zm-5.390625 -2.65625l5.40625 0q-0.109375 -1.21875 -0.625 -1.828125q-0.78125 -0.953125 -2.03125 -0.953125q-1.125 0 -1.90625 0.765625q-0.765625 0.75 -0.84375 2.015625z" fill-rule="nonzero"/><path fill="#d9ead3" d="m466.58923 168.74278l50.614197 0l0 28.724411l-50.614197 0z" fill-rule="evenodd"/><path stroke="#000000" stroke-width="1.0" stroke-linejoin="round" stroke-linecap="butt" d="m466.58923 168.74278l50.614197 0l0 28.724411l-50.614197 0z" fill-rule="evenodd"/><path fill="#000000" d="m488.17548 190.02498l-2.96875 -9.671875l1.703125 0l1.53125 5.578125l0.578125 2.078125q0.046875 -0.15625 0.5 -2.0l1.546875 -5.65625l1.6875 0l1.4375 5.609375l0.484375 1.84375l0.5625 -1.859375l1.65625 -5.59375l1.59375 0l-3.03125 9.671875l-1.703125 0l-1.53125 -5.796875l-0.375 -1.640625l-1.953125 7.4375l-1.71875 0z" fill-rule="nonzero"/><path fill="#000000" fill-opacity="0.0" d="m277.10892 183.10498l189.48032 0" fill-rule="evenodd"/><path stroke="#000000" stroke-width="1.0" stroke-linejoin="round" stroke-linecap="butt" d="m277.10892 183.10498l183.48032 0" fill-rule="evenodd"/><path fill="#000000" stroke="#000000" stroke-width="1.0" stroke-linecap="butt" d="m460.58923 184.75671l4.5381165 -1.6517334l-4.5381165 -1.6517334z" fill-rule="evenodd"/><path fill="#000000" fill-opacity="0.0" d="m248.01312 131.2441l80.09448 0l0 51.716537l-80.09448 0z" fill-rule="evenodd"/><path fill="#000000" d="m262.27014 153.0441l0 -9.546875l1.25 0l0 9.546875l-1.25 0zm3.3279724 0l0 -6.90625l1.0625 0l0 0.984375q0.75 -1.140625 2.1875 -1.140625q0.625 0 1.15625 0.21875q0.53125 0.21875 0.78125 0.59375q0.265625 0.359375 0.375 0.859375q0.0625 0.328125 0.0625 1.140625l0 4.25l-1.171875 0l0 -4.203125q0 -0.71875 -0.140625 -1.0625q-0.140625 -0.359375 -0.484375 -0.5625q-0.34375 -0.21875 -0.8125 -0.21875q-0.75 0 -1.296875 0.46875q-0.546875 0.46875 -0.546875 1.796875l0 3.78125l-1.171875 0zm11.928101 -2.53125l1.15625 0.15625q-0.1875 1.1875 -0.96875 1.859375q-0.78125 0.671875 -1.921875 0.671875q-1.40625 0 -2.28125 -0.921875q-0.859375 -0.9375 -0.859375 -2.65625q0 -1.125 0.375 -1.96875q0.375 -0.84375 1.125 -1.25q0.765625 -0.421875 1.65625 -0.421875q1.125 0 1.84375 0.578125q0.71875 0.5625 0.921875 1.609375l-1.140625 0.171875q-0.171875 -0.703125 -0.59375 -1.046875q-0.40625 -0.359375 -0.984375 -0.359375q-0.890625 0 -1.453125 0.640625q-0.546875 0.640625 -0.546875 2.0q0 1.40625 0.53125 2.03125q0.546875 0.625 1.40625 0.625q0.6875 0 1.140625 -0.421875q0.46875 -0.421875 0.59375 -1.296875zm1.7109375 -0.921875q0 -1.921875 1.078125 -2.84375q0.890625 -0.765625 2.171875 -0.765625q1.421875 0 2.328125 0.9375q0.90625 0.921875 0.90625 2.578125q0 1.328125 -0.40625 2.09375q-0.390625 0.765625 -1.15625 1.1875q-0.765625 0.421875 -1.671875 0.421875q-1.453125 0 -2.359375 -0.921875q-0.890625 -0.9375 -0.890625 -2.6875zm1.203125 0q0 1.328125 0.578125 1.984375q0.59375 0.65625 1.46875 0.65625q0.875 0 1.453125 -0.65625q0.578125 -0.671875 0.578125 -2.03125q0 -1.28125 -0.59375 -1.9375q-0.578125 -0.65625 -1.4375 -0.65625q-0.875 0 -1.46875 0.65625q-0.578125 0.65625 -0.578125 1.984375zm6.6468506 3.453125l0 -6.90625l1.046875 0l0 0.96875q0.328125 -0.515625 0.859375 -0.8125q0.546875 -0.3125 1.234375 -0.3125q0.78125 0 1.265625 0.3125q0.484375 0.3125 0.6875 0.890625q0.828125 -1.203125 2.140625 -1.203125q1.03125 0 1.578125 0.578125q0.5625 0.5625 0.5625 1.734375l0 4.75l-1.171875 0l0 -4.359375q0 -0.703125 -0.125 -1.0q-0.109375 -0.3125 -0.40625 -0.5q-0.296875 -0.1875 -0.703125 -0.1875q-0.71875 0 -1.203125 0.484375q-0.484375 0.484375 -0.484375 1.546875l0 4.015625l-1.171875 0l0 -4.484375q0 -0.78125 -0.296875 -1.171875q-0.28125 -0.390625 -0.921875 -0.390625q-0.5 0 -0.921875 0.265625q-0.421875 0.25 -0.609375 0.75q-0.1875 0.5 -0.1875 1.453125l0 3.578125l-1.171875 0zm11.1180725 -8.1875l0 -1.359375l1.171875 0l0 1.359375l-1.171875 0zm0 8.1875l0 -6.90625l1.171875 0l0 6.90625l-1.171875 0zm2.945465 0l0 -6.90625l1.0625 0l0 0.984375q0.75 -1.140625 2.1875 -1.140625q0.625 0 1.15625 0.21875q0.53125 0.21875 0.78125 0.59375q0.265625 0.359375 0.375 0.859375q0.0625 0.328125 0.0625 1.140625l0 4.25l-1.171875 0l0 -4.203125q0 -0.71875 -0.140625 -1.0625q-0.140625 -0.359375 -0.484375 -0.5625q-0.34375 -0.21875 -0.8125 -0.21875q-0.75 0 -1.296875 0.46875q-0.546875 0.46875 -0.546875 1.796875l0 3.78125l-1.171875 0zm7.1937256 0.578125l1.140625 0.15625q0.078125 0.53125 0.40625 0.78125q0.4375 0.3125 1.1875 0.3125q0.8125 0 1.25 -0.328125q0.453125 -0.3125 0.609375 -0.90625q0.09375 -0.359375 0.078125 -1.5q-0.765625 0.90625 -1.90625 0.90625q-1.4375 0 -2.21875 -1.03125q-0.78125 -1.03125 -0.78125 -2.46875q0 -0.984375 0.359375 -1.8125q0.359375 -0.84375 1.03125 -1.296875q0.6875 -0.453125 1.609375 -0.453125q1.21875 0 2.015625 0.984375l0 -0.828125l1.078125 0l0 5.96875q0 1.609375 -0.328125 2.28125q-0.328125 0.6875 -1.046875 1.078125q-0.703125 0.390625 -1.75 0.390625q-1.234375 0 -2.0 -0.5625q-0.75 -0.5625 -0.734375 -1.671875zm0.984375 -4.15625q0 1.359375 0.53125 1.984375q0.546875 0.625 1.359375 0.625q0.796875 0 1.34375 -0.625q0.546875 -0.625 0.546875 -1.953125q0 -1.265625 -0.5625 -1.90625q-0.5625 -0.640625 -1.359375 -0.640625q-0.765625 0 -1.3125 0.640625q-0.546875 0.625 -0.546875 1.875z" fill-rule="nonzero"/><path fill="#000000" d="m269.5775 166.9816l1.15625 -0.1875q0.109375 0.703125 0.546875 1.078125q0.453125 0.359375 1.25 0.359375q0.8125 0 1.203125 -0.328125q0.390625 -0.328125 0.390625 -0.765625q0 -0.390625 -0.359375 -0.625q-0.234375 -0.15625 -1.1875 -0.390625q-1.296875 -0.328125 -1.796875 -0.5625q-0.484375 -0.25 -0.75 -0.65625q-0.25 -0.421875 -0.25 -0.9375q0 -0.453125 0.203125 -0.84375q0.21875 -0.40625 0.578125 -0.671875q0.28125 -0.1875 0.75 -0.328125q0.46875 -0.140625 1.015625 -0.140625q0.8125 0 1.421875 0.234375q0.609375 0.234375 0.90625 0.640625q0.296875 0.390625 0.40625 1.0625l-1.140625 0.15625q-0.078125 -0.53125 -0.453125 -0.828125q-0.375 -0.3125 -1.0625 -0.3125q-0.8125 0 -1.15625 0.265625q-0.34375 0.265625 -0.34375 0.625q0 0.234375 0.140625 0.421875q0.15625 0.1875 0.453125 0.3125q0.171875 0.0625 1.03125 0.296875q1.25 0.328125 1.734375 0.546875q0.5 0.203125 0.78125 0.609375q0.28125 0.40625 0.28125 1.0q0 0.59375 -0.34375 1.109375q-0.34375 0.515625 -1.0 0.796875q-0.640625 0.28125 -1.453125 0.28125q-1.34375 0 -2.046875 -0.5625q-0.703125 -0.5625 -0.90625 -1.65625zm7.1328125 4.71875l0 -9.5625l1.078125 0l0 0.890625q0.375 -0.53125 0.84375 -0.78125q0.484375 -0.265625 1.15625 -0.265625q0.875 0 1.546875 0.453125q0.6875 0.453125 1.03125 1.28125q0.34375 0.828125 0.34375 1.828125q0 1.046875 -0.375 1.90625q-0.375 0.84375 -1.109375 1.296875q-0.71875 0.453125 -1.53125 0.453125q-0.578125 0 -1.046875 -0.25q-0.46875 -0.25 -0.765625 -0.625l0 3.375l-1.171875 0zm1.0625 -6.078125q0 1.34375 0.53125 1.984375q0.546875 0.625 1.3125 0.625q0.78125 0 1.34375 -0.65625q0.5625 -0.65625 0.5625 -2.046875q0 -1.3125 -0.546875 -1.96875q-0.546875 -0.671875 -1.296875 -0.671875q-0.75 0 -1.328125 0.703125q-0.578125 0.703125 -0.578125 2.03125zm6.3656006 -4.765625l0 -1.359375l1.171875 0l0 1.359375l-1.171875 0zm0 8.1875l0 -6.90625l1.171875 0l0 6.90625l-1.171875 0zm2.96109 0l0 -9.546875l1.171875 0l0 5.453125l2.765625 -2.8125l1.515625 0l-2.640625 2.5625l2.90625 4.34375l-1.4375 0l-2.28125 -3.53125l-0.828125 0.796875l0 2.734375l-1.171875 0zm11.3828125 -2.21875l1.203125 0.140625q-0.28125 1.0625 -1.0625 1.65625q-0.765625 0.578125 -1.96875 0.578125q-1.515625 0 -2.40625 -0.9375q-0.890625 -0.9375 -0.890625 -2.609375q0 -1.75 0.890625 -2.703125q0.90625 -0.96875 2.34375 -0.96875q1.390625 0 2.265625 0.9375q0.875 0.9375 0.875 2.65625q0 0.109375 0 0.3125l-5.15625 0q0.0625 1.140625 0.640625 1.75q0.578125 0.59375 1.4375 0.59375q0.65625 0 1.109375 -0.328125q0.453125 -0.34375 0.71875 -1.078125zm-3.84375 -1.90625l3.859375 0q-0.078125 -0.859375 -0.4375 -1.296875q-0.5625 -0.6875 -1.453125 -0.6875q-0.8125 0 -1.359375 0.546875q-0.546875 0.53125 -0.609375 1.4375zm6.0531006 2.0625l1.15625 -0.1875q0.109375 0.703125 0.546875 1.078125q0.453125 0.359375 1.25 0.359375q0.8125 0 1.203125 -0.328125q0.390625 -0.328125 0.390625 -0.765625q0 -0.390625 -0.359375 -0.625q-0.234375 -0.15625 -1.1875 -0.390625q-1.296875 -0.328125 -1.796875 -0.5625q-0.484375 -0.25 -0.75 -0.65625q-0.25 -0.421875 -0.25 -0.9375q0 -0.453125 0.203125 -0.84375q0.21875 -0.40625 0.578125 -0.671875q0.28125 -0.1875 0.75 -0.328125q0.46875 -0.140625 1.015625 -0.140625q0.8125 0 1.421875 0.234375q0.609375 0.234375 0.90625 0.640625q0.296875 0.390625 0.40625 1.0625l-1.140625 0.15625q-0.078125 -0.53125 -0.453125 -0.828125q-0.375 -0.3125 -1.0625 -0.3125q-0.8125 0 -1.15625 0.265625q-0.34375 0.265625 -0.34375 0.625q0 0.234375 0.140625 0.421875q0.15625 0.1875 0.453125 0.3125q0.171875 0.0625 1.03125 0.296875q1.25 0.328125 1.734375 0.546875q0.5 0.203125 0.78125 0.609375q0.28125 0.40625 0.28125 1.0q0 0.59375 -0.34375 1.109375q-0.34375 0.515625 -1.0 0.796875q-0.640625 0.28125 -1.453125 0.28125q-1.34375 0 -2.046875 -0.5625q-0.703125 -0.5625 -0.90625 -1.65625z" fill-rule="nonzero"/><path fill="#d9ead3" d="m466.58923 338.22308l50.614197 0l0 28.724426l-50.614197 0z" fill-rule="evenodd"/><path stroke="#000000" stroke-width="1.0" stroke-linejoin="round" stroke-linecap="butt" d="m466.58923 338.22308l50.614197 0l0 28.724426l-50.614197 0z" fill-rule="evenodd"/><path fill="#000000" d="m488.17548 359.5053l-2.96875 -9.671875l1.703125 0l1.53125 5.578125l0.578125 2.078125q0.046875 -0.15625 0.5 -2.0l1.546875 -5.65625l1.6875 0l1.4375 5.609375l0.484375 1.84375l0.5625 -1.859375l1.65625 -5.59375l1.59375 0l-3.03125 9.671875l-1.703125 0l-1.53125 -5.796875l-0.375 -1.640625l-1.953125 7.4375l-1.71875 0z" fill-rule="nonzero"/><path fill="#000000" fill-opacity="0.0" d="m277.10892 352.5853l189.48032 0" fill-rule="evenodd"/><path stroke="#000000" stroke-width="1.0" stroke-linejoin="round" stroke-linecap="butt" d="m277.10892 352.5853l183.48032 0" fill-rule="evenodd"/><path fill="#000000" stroke="#000000" stroke-width="1.0" stroke-linecap="butt" d="m460.58923 354.23703l4.5381165 -1.6517334l-4.5381165 -1.6517334z" fill-rule="evenodd"/><path fill="#cfe2f3" d="m639.68506 301.94513l0 0c0 -6.584076 5.3374023 -11.921509 11.921509 -11.921509l83.90503 0c3.1617432 0 6.194031 1.256012 8.429749 3.4917297c2.2357178 2.2357178 3.4916992 5.2680054 3.4916992 8.429779l0 47.68454c0 6.584076 -5.3374023 11.921509 -11.921448 11.921509l-83.90503 0c-6.5841064 0 -11.921509 -5.337433 -11.921509 -11.921509z" fill-rule="evenodd"/><path stroke="#000000" stroke-width="1.0" stroke-linejoin="round" stroke-linecap="butt" d="m639.68506 301.94513l0 0c0 -6.584076 5.3374023 -11.921509 11.921509 -11.921509l83.90503 0c3.1617432 0 6.194031 1.256012 8.429749 3.4917297c2.2357178 2.2357178 3.4916992 5.2680054 3.4916992 8.429779l0 47.68454c0 6.584076 -5.3374023 11.921509 -11.921448 11.921509l-83.90503 0c-6.5841064 0 -11.921509 -5.337433 -11.921509 -11.921509z" fill-rule="evenodd"/><path fill="#000000" d="m681.4409 321.7074l0 -13.359375l1.78125 0l0 11.78125l6.5625 0l0 1.578125l-8.34375 0zm10.750732 0l0 -13.359375l1.765625 0l0 13.359375l-1.765625 0zm4.9801636 0l0 -13.359375l9.015625 0l0 1.578125l-7.25 0l0 4.140625l6.265625 0l0 1.578125l-6.265625 0l0 6.0625l-1.765625 0z" fill-rule="nonzero"/><path fill="#000000" d="m664.38666 343.7074l0 -13.359375l1.8125 0l7.015625 10.484375l0 -10.484375l1.6875 0l0 13.359375l-1.8125 0l-7.015625 -10.5l0 10.5l-1.6875 0zm19.910461 -3.109375l1.6875 0.203125q-0.40625 1.484375 -1.484375 2.3125q-1.078125 0.8125 -2.765625 0.8125q-2.125 0 -3.375 -1.296875q-1.234375 -1.3125 -1.234375 -3.671875q0 -2.453125 1.25 -3.796875q1.265625 -1.34375 3.265625 -1.34375q1.9375 0 3.15625 1.328125q1.234375 1.3125 1.234375 3.703125q0 0.15625 0 0.4375l-7.21875 0q0.09375 1.59375 0.90625 2.453125q0.8125 0.84375 2.015625 0.84375q0.90625 0 1.546875 -0.46875q0.640625 -0.484375 1.015625 -1.515625zm-5.390625 -2.65625l5.40625 0q-0.109375 -1.21875 -0.625 -1.828125q-0.78125 -0.953125 -2.03125 -0.953125q-1.125 0 -1.90625 0.765625q-0.765625 0.75 -0.84375 2.015625zm15.469482 5.765625l0 -1.421875q-1.125 1.640625 -3.0625 1.640625q-0.859375 0 -1.609375 -0.328125q-0.734375 -0.328125 -1.09375 -0.828125q-0.359375 -0.5 -0.5 -1.21875q-0.109375 -0.46875 -0.109375 -1.53125l0 -5.984375l1.640625 0l0 5.359375q0 1.28125 0.109375 1.734375q0.15625 0.640625 0.65625 1.015625q0.5 0.375 1.234375 0.375q0.734375 0 1.375 -0.375q0.65625 -0.390625 0.921875 -1.03125q0.265625 -0.65625 0.265625 -1.890625l0 -5.1875l1.640625 0l0 9.671875l-1.46875 0zm4.0319824 0l0 -9.671875l1.46875 0l0 1.46875q0.5625 -1.03125 1.03125 -1.359375q0.484375 -0.328125 1.0625 -0.328125q0.828125 0 1.6875 0.53125l-0.5625 1.515625q-0.609375 -0.359375 -1.203125 -0.359375q-0.546875 0 -0.96875 0.328125q-0.421875 0.328125 -0.609375 0.890625q-0.28125 0.875 -0.28125 1.921875l0 5.0625l-1.625 0zm5.6188965 -4.84375q0 -2.6875 1.484375 -3.96875q1.25 -1.078125 3.046875 -1.078125q2.0 0 3.265625 1.3125q1.265625 1.296875 1.265625 3.609375q0 1.859375 -0.5625 2.9375q-0.5625 1.0625 -1.640625 1.65625q-1.0625 0.59375 -2.328125 0.59375q-2.03125 0 -3.28125 -1.296875q-1.25 -1.3125 -1.25 -3.765625zm1.6875 0q0 1.859375 0.796875 2.796875q0.8125 0.921875 2.046875 0.921875q1.21875 0 2.03125 -0.921875q0.8125 -0.9375 0.8125 -2.84375q0 -1.796875 -0.8125 -2.71875q-0.8125 -0.921875 -2.03125 -0.921875q-1.234375 0 -2.046875 0.921875q-0.796875 0.90625 -0.796875 2.765625zm9.297607 4.84375l0 -9.671875l1.46875 0l0 1.375q1.0625 -1.59375 3.078125 -1.59375q0.875 0 1.609375 0.3125q0.734375 0.3125 1.09375 0.828125q0.375 0.5 0.515625 1.203125q0.09375 0.453125 0.09375 1.59375l0 5.953125l-1.640625 0l0 -5.890625q0 -1.0 -0.203125 -1.484375q-0.1875 -0.5 -0.671875 -0.796875q-0.484375 -0.296875 -1.140625 -0.296875q-1.046875 0 -1.8125 0.671875q-0.75 0.65625 -0.75 2.515625l0 5.28125l-1.640625 0z" fill-rule="nonzero"/><path fill="#d9ead3" d="m466.58923 538.8583l50.614197 0l0 28.724426l-50.614197 0z" fill-rule="evenodd"/><path stroke="#000000" stroke-width="1.0" stroke-linejoin="round" stroke-linecap="butt" d="m466.58923 538.8583l50.614197 0l0 28.724426l-50.614197 0z" fill-rule="evenodd"/><path fill="#000000" d="m488.17548 560.14044l-2.96875 -9.671875l1.703125 0l1.53125 5.578125l0.578125 2.078125q0.046875 -0.15625 0.5 -2.0l1.546875 -5.65625l1.6875 0l1.4375 5.609375l0.484375 1.84375l0.5625 -1.859375l1.65625 -5.59375l1.59375 0l-3.03125 9.671875l-1.703125 0l-1.53125 -5.796875l-0.375 -1.640625l-1.953125 7.4375l-1.71875 0z" fill-rule="nonzero"/><path fill="#000000" fill-opacity="0.0" d="m277.10892 553.22046l189.48032 0" fill-rule="evenodd"/><path stroke="#000000" stroke-width="1.0" stroke-linejoin="round" stroke-linecap="butt" d="m277.10892 553.22046l183.48032 0" fill-rule="evenodd"/><path fill="#000000" stroke="#000000" stroke-width="1.0" stroke-linecap="butt" d="m460.58923 554.8722l4.5381165 -1.6517334l-4.5381165 -1.6517334z" fill-rule="evenodd"/><path fill="#000000" fill-opacity="0.0" d="m517.2034 183.10498c30.620178 0 45.929382 35.669296 61.240417 71.33859c15.311035 35.66928 30.62384 71.33859 61.24774 71.33859" fill-rule="evenodd"/><path stroke="#000000" stroke-width="1.0" stroke-linejoin="round" stroke-linecap="butt" d="m517.2034 183.10498c30.620178 0 45.929382 35.669296 61.240417 71.33859c15.311035 35.66928 30.62384 71.33859 61.24774 71.33859" fill-rule="evenodd"/><path fill="#000000" fill-opacity="0.0" d="m517.2034 352.5853c30.620178 0 45.929382 -6.700775 61.240417 -13.401581c15.311035 -6.700775 30.62384 -13.40155 61.24774 -13.40155" fill-rule="evenodd"/><path stroke="#000000" stroke-width="1.0" stroke-linejoin="round" stroke-linecap="butt" d="m517.2034 352.5853c30.620178 0 45.929382 -6.700775 61.240417 -13.401581c15.311035 -6.700775 30.62384 -13.40155 61.24774 -13.40155" fill-rule="evenodd"/><path fill="#000000" fill-opacity="0.0" d="m517.2034 553.22046c30.620178 0 45.929382 -56.858246 61.240417 -113.71652c15.311035 -56.858276 30.62384 -113.71652 61.24774 -113.71652" fill-rule="evenodd"/><path stroke="#000000" stroke-width="1.0" stroke-linejoin="round" stroke-linecap="butt" d="m517.2034 553.22046c30.620178 0 45.929382 -56.858246 61.240417 -113.71652c15.311035 -56.858276 30.62384 -113.71652 61.24774 -113.71652" fill-rule="evenodd"/><path fill="#000000" fill-opacity="0.0" d="m747.43304 325.7874l91.02362 0" fill-rule="evenodd"/><path stroke="#000000" stroke-width="1.0" stroke-linejoin="round" stroke-linecap="butt" d="m747.43304 325.7874l85.02362 0" fill-rule="evenodd"/><path fill="#000000" stroke="#000000" stroke-width="1.0" stroke-linecap="butt" d="m832.45667 327.43915l4.538147 -1.6517334l-4.538147 -1.6517334z" fill-rule="evenodd"/><path fill="#000000" fill-opacity="0.0" d="m750.6221 226.5958l80.09448 0l0 64.62991l-80.09448 0z" fill-rule="evenodd"/><path fill="#000000" d="m760.5283 247.0158q0 -3.328125 1.78125 -5.203125q1.78125 -1.890625 4.609375 -1.890625q1.84375 0 3.328125 0.890625q1.484375 0.875 2.265625 2.46875q0.78125 1.578125 0.78125 3.578125q0 2.03125 -0.828125 3.640625q-0.8125 1.59375 -2.3125 2.421875q-1.5 0.828125 -3.25 0.828125q-1.875 0 -3.359375 -0.90625q-1.484375 -0.921875 -2.25 -2.5q-0.765625 -1.578125 -0.765625 -3.328125zm1.8125 0.015625q0 2.421875 1.296875 3.8125q1.296875 1.390625 3.265625 1.390625q2.0 0 3.28125 -1.40625q1.28125 -1.40625 1.28125 -3.984375q0 -1.625 -0.546875 -2.84375q-0.546875 -1.21875 -1.609375 -1.875q-1.0625 -0.671875 -2.375 -0.671875q-1.890625 0 -3.25 1.296875q-1.34375 1.28125 -1.34375 4.28125zm19.355164 6.484375l0 -1.421875q-1.125 1.640625 -3.0625 1.640625q-0.859375 0 -1.609375 -0.328125q-0.734375 -0.328125 -1.09375 -0.828125q-0.359375 -0.5 -0.5 -1.21875q-0.109375 -0.46875 -0.109375 -1.53125l0 -5.984375l1.640625 0l0 5.359375q0 1.28125 0.109375 1.734375q0.15625 0.640625 0.65625 1.015625q0.5 0.375 1.234375 0.375q0.734375 0 1.375 -0.375q0.65625 -0.390625 0.921875 -1.03125q0.265625 -0.65625 0.265625 -1.890625l0 -5.1875l1.640625 0l0 9.671875l-1.46875 0zm7.6257324 -1.46875l0.234375 1.453125q-0.6875 0.140625 -1.234375 0.140625q-0.890625 0 -1.390625 -0.28125q-0.484375 -0.28125 -0.6875 -0.734375q-0.203125 -0.46875 -0.203125 -1.9375l0 -5.578125l-1.203125 0l0 -1.265625l1.203125 0l0 -2.390625l1.625 -0.984375l0 3.375l1.65625 0l0 1.265625l-1.65625 0l0 5.671875q0 0.6875 0.078125 0.890625q0.09375 0.203125 0.28125 0.328125q0.203125 0.109375 0.578125 0.109375q0.265625 0 0.71875 -0.0625zm1.6051636 5.1718903l0 -13.375015l1.484375 0l0 1.25q0.53125 -0.734375 1.1875 -1.09375q0.671875 -0.375 1.625 -0.375q1.234375 0 2.171875 0.640625q0.953125 0.625 1.4375 1.796875q0.484375 1.15625 0.484375 2.546875q0 1.484375 -0.53125 2.671875q-0.53125 1.1875 -1.546875 1.828125q-1.015625 0.625 -2.140625 0.625q-0.8125 0 -1.46875 -0.34375q-0.65625 -0.34375 -1.0625 -0.875l0 4.7031403l-1.640625 0zm1.484375 -8.48439q0 1.859375 0.75 2.765625q0.765625 0.890625 1.828125 0.890625q1.09375 0 1.875 -0.921875q0.78125 -0.9375 0.78125 -2.875q0 -1.84375 -0.765625 -2.765625q-0.75 -0.921875 -1.8125 -0.921875q-1.046875 0 -1.859375 0.984375q-0.796875 0.96875 -0.796875 2.84375zm15.219482 4.78125l0 -1.421875q-1.125 1.640625 -3.0625 1.640625q-0.859375 0 -1.609375 -0.328125q-0.734375 -0.328125 -1.09375 -0.828125q-0.359375 -0.5 -0.5 -1.21875q-0.109375 -0.46875 -0.109375 -1.53125l0 -5.984375l1.640625 0l0 5.359375q0 1.28125 0.109375 1.734375q0.15625 0.640625 0.65625 1.015625q0.5 0.375 1.234375 0.375q0.734375 0 1.375 -0.375q0.65625 -0.390625 0.921875 -1.03125q0.265625 -0.65625 0.265625 -1.890625l0 -5.1875l1.640625 0l0 9.671875l-1.46875 0zm7.6256714 -1.46875l0.234375 1.453125q-0.6875 0.140625 -1.234375 0.140625q-0.890625 0 -1.390625 -0.28125q-0.484375 -0.28125 -0.6875 -0.734375q-0.203125 -0.46875 -0.203125 -1.9375l0 -5.578125l-1.203125 0l0 -1.265625l1.203125 0l0 -2.390625l1.625 -0.984375l0 3.375l1.65625 0l0 1.265625l-1.65625 0l0 5.671875q0 0.6875 0.078125 0.890625q0.09375 0.203125 0.28125 0.328125q0.203125 0.109375 0.578125 0.109375q0.265625 0 0.71875 -0.0625z" fill-rule="nonzero"/><path fill="#000000" d="m760.4658 271.61893l1.65625 -0.140625q0.125 1.0 0.546875 1.640625q0.4375 0.640625 1.34375 1.046875q0.921875 0.390625 2.0625 0.390625q1.0 0 1.78125 -0.296875q0.78125 -0.296875 1.15625 -0.8125q0.375 -0.53125 0.375 -1.15625q0 -0.625 -0.375 -1.09375q-0.359375 -0.46875 -1.1875 -0.796875q-0.546875 -0.203125 -2.390625 -0.640625q-1.828125 -0.453125 -2.5625 -0.84375q-0.96875 -0.5 -1.4375 -1.234375q-0.46875 -0.75 -0.46875 -1.671875q0 -1.0 0.578125 -1.875q0.578125 -0.890625 1.671875 -1.34375q1.109375 -0.453125 2.453125 -0.453125q1.484375 0 2.609375 0.484375q1.140625 0.46875 1.75 1.40625q0.609375 0.921875 0.65625 2.09375l-1.6875 0.125q-0.140625 -1.265625 -0.9375 -1.90625q-0.78125 -0.65625 -2.3125 -0.65625q-1.609375 0 -2.34375 0.59375q-0.734375 0.59375 -0.734375 1.421875q0 0.71875 0.53125 1.171875q0.5 0.46875 2.65625 0.96875q2.15625 0.484375 2.953125 0.84375q1.171875 0.53125 1.71875 1.359375q0.5625 0.828125 0.5625 1.90625q0 1.0625 -0.609375 2.015625q-0.609375 0.9375 -1.75 1.46875q-1.140625 0.515625 -2.578125 0.515625q-1.8125 0 -3.046875 -0.53125q-1.21875 -0.53125 -1.921875 -1.59375q-0.6875 -1.0625 -0.71875 -2.40625zm12.8341675 8.0l0 -13.375l1.484375 0l0 1.25q0.53125 -0.734375 1.1875 -1.09375q0.671875 -0.375 1.625 -0.375q1.234375 0 2.171875 0.640625q0.953125 0.625 1.4375 1.796875q0.484375 1.15625 0.484375 2.546875q0 1.484375 -0.53125 2.671875q-0.53125 1.1875 -1.546875 1.828125q-1.015625 0.625 -2.140625 0.625q-0.8125 0 -1.46875 -0.34375q-0.65625 -0.34375 -1.0625 -0.875l0 4.703125l-1.640625 0zm1.484375 -8.484375q0 1.859375 0.75 2.765625q0.765625 0.890625 1.828125 0.890625q1.09375 0 1.875 -0.921875q0.78125 -0.9375 0.78125 -2.875q0 -1.84375 -0.765625 -2.765625q-0.75 -0.921875 -1.8125 -0.921875q-1.046875 0 -1.859375 0.984375q-0.796875 0.96875 -0.796875 2.84375zm8.891357 -6.6875l0 -1.890625l1.640625 0l0 1.890625l-1.640625 0zm0 11.46875l0 -9.671875l1.640625 0l0 9.671875l-1.640625 0zm4.1448364 0l0 -13.359375l1.640625 0l0 7.625l3.890625 -3.9375l2.109375 0l-3.6875 3.59375l4.0625 6.078125l-2.015625 0l-3.203125 -4.953125l-1.15625 1.125l0 3.828125l-1.640625 0zm15.953125 -3.109375l1.6875 0.203125q-0.40625 1.484375 -1.484375 2.3125q-1.078125 0.8125 -2.765625 0.8125q-2.125 0 -3.375 -1.296875q-1.234375 -1.3125 -1.234375 -3.671875q0 -2.453125 1.25 -3.796875q1.265625 -1.34375 3.265625 -1.34375q1.9375 0 3.15625 1.328125q1.234375 1.3125 1.234375 3.703125q0 0.15625 0 0.4375l-7.21875 0q0.09375 1.59375 0.90625 2.453125q0.8125 0.84375 2.015625 0.84375q0.90625 0 1.546875 -0.46875q0.640625 -0.484375 1.015625 -1.515625zm-5.390625 -2.65625l5.40625 0q-0.109375 -1.21875 -0.625 -1.828125q-0.78125 -0.953125 -2.03125 -0.953125q-1.125 0 -1.90625 0.765625q-0.765625 0.75 -0.84375 2.015625zm8.485046 2.875l1.625 -0.25q0.125 0.96875 0.75 1.5q0.625 0.515625 1.75 0.515625q1.125 0 1.671875 -0.453125q0.546875 -0.46875 0.546875 -1.09375q0 -0.546875 -0.484375 -0.875q-0.328125 -0.21875 -1.671875 -0.546875q-1.8125 -0.46875 -2.515625 -0.796875q-0.6875 -0.328125 -1.046875 -0.90625q-0.359375 -0.59375 -0.359375 -1.3125q0 -0.640625 0.296875 -1.1875q0.296875 -0.5625 0.8125 -0.921875q0.375 -0.28125 1.03125 -0.46875q0.671875 -0.203125 1.421875 -0.203125q1.140625 0 2.0 0.328125q0.859375 0.328125 1.265625 0.890625q0.421875 0.5625 0.578125 1.5l-1.609375 0.21875q-0.109375 -0.75 -0.640625 -1.171875q-0.515625 -0.421875 -1.46875 -0.421875q-1.140625 0 -1.625 0.375q-0.46875 0.375 -0.46875 0.875q0 0.3125 0.1875 0.578125q0.203125 0.265625 0.640625 0.4375q0.234375 0.09375 1.4375 0.421875q1.75 0.453125 2.4375 0.75q0.6875 0.296875 1.078125 0.859375q0.390625 0.5625 0.390625 1.40625q0 0.828125 -0.484375 1.546875q-0.46875 0.71875 -1.375 1.125q-0.90625 0.390625 -2.046875 0.390625q-1.875 0 -2.875 -0.78125q-0.984375 -0.78125 -1.25 -2.328125z" fill-rule="nonzero"/><path fill="#000000" fill-opacity="0.0" d="m248.01312 297.3727l80.09448 0l0 51.716522l-80.09448 0z" fill-rule="evenodd"/><path fill="#000000" d="m262.27014 319.1727l0 -9.546875l1.25 0l0 9.546875l-1.25 0zm3.3279724 0l0 -6.90625l1.0625 0l0 0.984375q0.75 -1.140625 2.1875 -1.140625q0.625 0 1.15625 0.21875q0.53125 0.21875 0.78125 0.59375q0.265625 0.359375 0.375 0.859375q0.0625 0.328125 0.0625 1.140625l0 4.25l-1.171875 0l0 -4.203125q0 -0.71875 -0.140625 -1.0625q-0.140625 -0.359375 -0.484375 -0.5625q-0.34375 -0.21875 -0.8125 -0.21875q-0.75 0 -1.296875 0.46875q-0.546875 0.46875 -0.546875 1.796875l0 3.78125l-1.171875 0zm11.928101 -2.53125l1.15625 0.15625q-0.1875 1.1875 -0.96875 1.859375q-0.78125 0.671875 -1.921875 0.671875q-1.40625 0 -2.28125 -0.921875q-0.859375 -0.9375 -0.859375 -2.65625q0 -1.125 0.375 -1.96875q0.375 -0.84375 1.125 -1.25q0.765625 -0.421875 1.65625 -0.421875q1.125 0 1.84375 0.578125q0.71875 0.5625 0.921875 1.609375l-1.140625 0.171875q-0.171875 -0.703125 -0.59375 -1.046875q-0.40625 -0.359375 -0.984375 -0.359375q-0.890625 0 -1.453125 0.640625q-0.546875 0.640625 -0.546875 2.0q0 1.40625 0.53125 2.03125q0.546875 0.625 1.40625 0.625q0.6875 0 1.140625 -0.421875q0.46875 -0.421875 0.59375 -1.296875zm1.7109375 -0.921875q0 -1.921875 1.078125 -2.84375q0.890625 -0.765625 2.171875 -0.765625q1.421875 0 2.328125 0.9375q0.90625 0.921875 0.90625 2.578125q0 1.328125 -0.40625 2.09375q-0.390625 0.765625 -1.15625 1.1875q-0.765625 0.421875 -1.671875 0.421875q-1.453125 0 -2.359375 -0.921875q-0.890625 -0.9375 -0.890625 -2.6875zm1.203125 0q0 1.328125 0.578125 1.984375q0.59375 0.65625 1.46875 0.65625q0.875 0 1.453125 -0.65625q0.578125 -0.671875 0.578125 -2.03125q0 -1.28125 -0.59375 -1.9375q-0.578125 -0.65625 -1.4375 -0.65625q-0.875 0 -1.46875 0.65625q-0.578125 0.65625 -0.578125 1.984375zm6.6468506 3.453125l0 -6.90625l1.046875 0l0 0.96875q0.328125 -0.515625 0.859375 -0.8125q0.546875 -0.3125 1.234375 -0.3125q0.78125 0 1.265625 0.3125q0.484375 0.3125 0.6875 0.890625q0.828125 -1.203125 2.140625 -1.203125q1.03125 0 1.578125 0.578125q0.5625 0.5625 0.5625 1.734375l0 4.75l-1.171875 0l0 -4.359375q0 -0.703125 -0.125 -1.0q-0.109375 -0.3125 -0.40625 -0.5q-0.296875 -0.1875 -0.703125 -0.1875q-0.71875 0 -1.203125 0.484375q-0.484375 0.484375 -0.484375 1.546875l0 4.015625l-1.171875 0l0 -4.484375q0 -0.78125 -0.296875 -1.171875q-0.28125 -0.390625 -0.921875 -0.390625q-0.5 0 -0.921875 0.265625q-0.421875 0.25 -0.609375 0.75q-0.1875 0.5 -0.1875 1.453125l0 3.578125l-1.171875 0zm11.1180725 -8.1875l0 -1.359375l1.171875 0l0 1.359375l-1.171875 0zm0 8.1875l0 -6.90625l1.171875 0l0 6.90625l-1.171875 0zm2.945465 0l0 -6.90625l1.0625 0l0 0.984375q0.75 -1.140625 2.1875 -1.140625q0.625 0 1.15625 0.21875q0.53125 0.21875 0.78125 0.59375q0.265625 0.359375 0.375 0.859375q0.0625 0.328125 0.0625 1.140625l0 4.25l-1.171875 0l0 -4.203125q0 -0.71875 -0.140625 -1.0625q-0.140625 -0.359375 -0.484375 -0.5625q-0.34375 -0.21875 -0.8125 -0.21875q-0.75 0 -1.296875 0.46875q-0.546875 0.46875 -0.546875 1.796875l0 3.78125l-1.171875 0zm7.1937256 0.578125l1.140625 0.15625q0.078125 0.53125 0.40625 0.78125q0.4375 0.3125 1.1875 0.3125q0.8125 0 1.25 -0.328125q0.453125 -0.3125 0.609375 -0.90625q0.09375 -0.359375 0.078125 -1.5q-0.765625 0.90625 -1.90625 0.90625q-1.4375 0 -2.21875 -1.03125q-0.78125 -1.03125 -0.78125 -2.46875q0 -0.984375 0.359375 -1.8125q0.359375 -0.84375 1.03125 -1.296875q0.6875 -0.453125 1.609375 -0.453125q1.21875 0 2.015625 0.984375l0 -0.828125l1.078125 0l0 5.96875q0 1.609375 -0.328125 2.28125q-0.328125 0.6875 -1.046875 1.078125q-0.703125 0.390625 -1.75 0.390625q-1.234375 0 -2.0 -0.5625q-0.75 -0.5625 -0.734375 -1.671875zm0.984375 -4.15625q0 1.359375 0.53125 1.984375q0.546875 0.625 1.359375 0.625q0.796875 0 1.34375 -0.625q0.546875 -0.625 0.546875 -1.953125q0 -1.265625 -0.5625 -1.90625q-0.5625 -0.640625 -1.359375 -0.640625q-0.765625 0 -1.3125 0.640625q-0.546875 0.625 -0.546875 1.875z" fill-rule="nonzero"/><path fill="#000000" d="m269.5775 333.1102l1.15625 -0.1875q0.109375 0.703125 0.546875 1.078125q0.453125 0.359375 1.25 0.359375q0.8125 0 1.203125 -0.328125q0.390625 -0.328125 0.390625 -0.765625q0 -0.390625 -0.359375 -0.625q-0.234375 -0.15625 -1.1875 -0.390625q-1.296875 -0.328125 -1.796875 -0.5625q-0.484375 -0.25 -0.75 -0.65625q-0.25 -0.421875 -0.25 -0.9375q0 -0.453125 0.203125 -0.84375q0.21875 -0.40625 0.578125 -0.671875q0.28125 -0.1875 0.75 -0.328125q0.46875 -0.140625 1.015625 -0.140625q0.8125 0 1.421875 0.234375q0.609375 0.234375 0.90625 0.640625q0.296875 0.390625 0.40625 1.0625l-1.140625 0.15625q-0.078125 -0.53125 -0.453125 -0.828125q-0.375 -0.3125 -1.0625 -0.3125q-0.8125 0 -1.15625 0.265625q-0.34375 0.265625 -0.34375 0.625q0 0.234375 0.140625 0.421875q0.15625 0.1875 0.453125 0.3125q0.171875 0.0625 1.03125 0.296875q1.25 0.328125 1.734375 0.546875q0.5 0.203125 0.78125 0.609375q0.28125 0.40625 0.28125 1.0q0 0.59375 -0.34375 1.109375q-0.34375 0.515625 -1.0 0.796875q-0.640625 0.28125 -1.453125 0.28125q-1.34375 0 -2.046875 -0.5625q-0.703125 -0.5625 -0.90625 -1.65625zm7.1328125 4.71875l0 -9.5625l1.078125 0l0 0.890625q0.375 -0.53125 0.84375 -0.78125q0.484375 -0.265625 1.15625 -0.265625q0.875 0 1.546875 0.453125q0.6875 0.453125 1.03125 1.28125q0.34375 0.828125 0.34375 1.828125q0 1.046875 -0.375 1.90625q-0.375 0.84375 -1.109375 1.296875q-0.71875 0.453125 -1.53125 0.453125q-0.578125 0 -1.046875 -0.25q-0.46875 -0.25 -0.765625 -0.625l0 3.375l-1.171875 0zm1.0625 -6.078125q0 1.34375 0.53125 1.984375q0.546875 0.625 1.3125 0.625q0.78125 0 1.34375 -0.65625q0.5625 -0.65625 0.5625 -2.046875q0 -1.3125 -0.546875 -1.96875q-0.546875 -0.671875 -1.296875 -0.671875q-0.75 0 -1.328125 0.703125q-0.578125 0.703125 -0.578125 2.03125zm6.3656006 -4.765625l0 -1.359375l1.171875 0l0 1.359375l-1.171875 0zm0 8.1875l0 -6.90625l1.171875 0l0 6.90625l-1.171875 0zm2.96109 0l0 -9.546875l1.171875 0l0 5.453125l2.765625 -2.8125l1.515625 0l-2.640625 2.5625l2.90625 4.34375l-1.4375 0l-2.28125 -3.53125l-0.828125 0.796875l0 2.734375l-1.171875 0zm11.3828125 -2.21875l1.203125 0.140625q-0.28125 1.0625 -1.0625 1.65625q-0.765625 0.578125 -1.96875 0.578125q-1.515625 0 -2.40625 -0.9375q-0.890625 -0.9375 -0.890625 -2.609375q0 -1.75 0.890625 -2.703125q0.90625 -0.96875 2.34375 -0.96875q1.390625 0 2.265625 0.9375q0.875 0.9375 0.875 2.65625q0 0.109375 0 0.3125l-5.15625 0q0.0625 1.140625 0.640625 1.75q0.578125 0.59375 1.4375 0.59375q0.65625 0 1.109375 -0.328125q0.453125 -0.34375 0.71875 -1.078125zm-3.84375 -1.90625l3.859375 0q-0.078125 -0.859375 -0.4375 -1.296875q-0.5625 -0.6875 -1.453125 -0.6875q-0.8125 0 -1.359375 0.546875q-0.546875 0.53125 -0.609375 1.4375zm6.0531006 2.0625l1.15625 -0.1875q0.109375 0.703125 0.546875 1.078125q0.453125 0.359375 1.25 0.359375q0.8125 0 1.203125 -0.328125q0.390625 -0.328125 0.390625 -0.765625q0 -0.390625 -0.359375 -0.625q-0.234375 -0.15625 -1.1875 -0.390625q-1.296875 -0.328125 -1.796875 -0.5625q-0.484375 -0.25 -0.75 -0.65625q-0.25 -0.421875 -0.25 -0.9375q0 -0.453125 0.203125 -0.84375q0.21875 -0.40625 0.578125 -0.671875q0.28125 -0.1875 0.75 -0.328125q0.46875 -0.140625 1.015625 -0.140625q0.8125 0 1.421875 0.234375q0.609375 0.234375 0.90625 0.640625q0.296875 0.390625 0.40625 1.0625l-1.140625 0.15625q-0.078125 -0.53125 -0.453125 -0.828125q-0.375 -0.3125 -1.0625 -0.3125q-0.8125 0 -1.15625 0.265625q-0.34375 0.265625 -0.34375 0.625q0 0.234375 0.140625 0.421875q0.15625 0.1875 0.453125 0.3125q0.171875 0.0625 1.03125 0.296875q1.25 0.328125 1.734375 0.546875q0.5 0.203125 0.78125 0.609375q0.28125 0.40625 0.28125 1.0q0 0.59375 -0.34375 1.109375q-0.34375 0.515625 -1.0 0.796875q-0.640625 0.28125 -1.453125 0.28125q-1.34375 0 -2.046875 -0.5625q-0.703125 -0.5625 -0.90625 -1.65625z" fill-rule="nonzero"/><path fill="#000000" fill-opacity="0.0" d="m248.01312 496.34384l80.09448 0l0 51.716522l-80.09448 0z" fill-rule="evenodd"/><path fill="#000000" d="m262.27014 518.14386l0 -9.5469055l1.25 0l0 9.5469055l-1.25 0zm3.3279724 0l0 -6.9062805l1.0625 0l0 0.9844055q0.75 -1.1406555 2.1875 -1.1406555q0.625 0 1.15625 0.21875q0.53125 0.21875 0.78125 0.59375q0.265625 0.35940552 0.375 0.8594055q0.0625 0.328125 0.0625 1.140625l0 4.25l-1.171875 0l0 -4.203125q0 -0.71875 -0.140625 -1.0625q-0.140625 -0.359375 -0.484375 -0.5625q-0.34375 -0.21875 -0.8125 -0.21875q-0.75 0 -1.296875 0.46875q-0.546875 0.46875 -0.546875 1.796875l0 3.78125l-1.171875 0zm11.928101 -2.53125l1.15625 0.15625q-0.1875 1.1875 -0.96875 1.859375q-0.78125 0.671875 -1.921875 0.671875q-1.40625 0 -2.28125 -0.921875q-0.859375 -0.9375 -0.859375 -2.65625q0 -1.125 0.375 -1.96875q0.375 -0.8437805 1.125 -1.2500305q0.765625 -0.421875 1.65625 -0.421875q1.125 0 1.84375 0.578125q0.71875 0.5625305 0.921875 1.6094055l-1.140625 0.171875q-0.171875 -0.703125 -0.59375 -1.046875q-0.40625 -0.359375 -0.984375 -0.359375q-0.890625 0 -1.453125 0.640625q-0.546875 0.640625 -0.546875 2.0q0 1.40625 0.53125 2.03125q0.546875 0.625 1.40625 0.625q0.6875 0 1.140625 -0.421875q0.46875 -0.421875 0.59375 -1.296875zm1.7109375 -0.921875q0 -1.921875 1.078125 -2.8437805q0.890625 -0.765625 2.171875 -0.765625q1.421875 0 2.328125 0.9375305q0.90625 0.921875 0.90625 2.578125q0 1.328125 -0.40625 2.09375q-0.390625 0.765625 -1.15625 1.1875q-0.765625 0.421875 -1.671875 0.421875q-1.453125 0 -2.359375 -0.921875q-0.890625 -0.9375 -0.890625 -2.6875zm1.203125 0q0 1.328125 0.578125 1.984375q0.59375 0.65625 1.46875 0.65625q0.875 0 1.453125 -0.65625q0.578125 -0.671875 0.578125 -2.03125q0 -1.28125 -0.59375 -1.9375q-0.578125 -0.65625 -1.4375 -0.65625q-0.875 0 -1.46875 0.65625q-0.578125 0.65625 -0.578125 1.984375zm6.6468506 3.453125l0 -6.9062805l1.046875 0l0 0.9687805q0.328125 -0.5156555 0.859375 -0.8125305q0.546875 -0.3125 1.234375 -0.3125q0.78125 0 1.265625 0.3125q0.484375 0.3125 0.6875 0.8906555q0.828125 -1.2031555 2.140625 -1.2031555q1.03125 0 1.578125 0.578125q0.5625 0.5625305 0.5625 1.7344055l0 4.75l-1.171875 0l0 -4.359375q0 -0.703125 -0.125 -1.0q-0.109375 -0.3125 -0.40625 -0.5q-0.296875 -0.1875 -0.703125 -0.1875q-0.71875 0 -1.203125 0.484375q-0.484375 0.484375 -0.484375 1.546875l0 4.015625l-1.171875 0l0 -4.484375q0 -0.78125 -0.296875 -1.171875q-0.28125 -0.390625 -0.921875 -0.390625q-0.5 0 -0.921875 0.265625q-0.421875 0.25 -0.609375 0.75q-0.1875 0.5 -0.1875 1.453125l0 3.578125l-1.171875 0zm11.1180725 -8.1875305l0 -1.359375l1.171875 0l0 1.359375l-1.171875 0zm0 8.1875305l0 -6.9062805l1.171875 0l0 6.9062805l-1.171875 0zm2.945465 0l0 -6.9062805l1.0625 0l0 0.9844055q0.75 -1.1406555 2.1875 -1.1406555q0.625 0 1.15625 0.21875q0.53125 0.21875 0.78125 0.59375q0.265625 0.35940552 0.375 0.8594055q0.0625 0.328125 0.0625 1.140625l0 4.25l-1.171875 0l0 -4.203125q0 -0.71875 -0.140625 -1.0625q-0.140625 -0.359375 -0.484375 -0.5625q-0.34375 -0.21875 -0.8125 -0.21875q-0.75 0 -1.296875 0.46875q-0.546875 0.46875 -0.546875 1.796875l0 3.78125l-1.171875 0zm7.1937256 0.578125l1.140625 0.15625q0.078125 0.53125 0.40625 0.78125q0.4375 0.3125 1.1875 0.3125q0.8125 0 1.25 -0.328125q0.453125 -0.3125 0.609375 -0.90625q0.09375 -0.359375 0.078125 -1.5q-0.765625 0.90625 -1.90625 0.90625q-1.4375 0 -2.21875 -1.03125q-0.78125 -1.03125 -0.78125 -2.46875q0 -0.984375 0.359375 -1.8125q0.359375 -0.8437805 1.03125 -1.2969055q0.6875 -0.453125 1.609375 -0.453125q1.21875 0 2.015625 0.9844055l0 -0.8281555l1.078125 0l0 5.9687805q0 1.609375 -0.328125 2.28125q-0.328125 0.6875 -1.046875 1.078125q-0.703125 0.390625 -1.75 0.390625q-1.234375 0 -2.0 -0.5625q-0.75 -0.5625 -0.734375 -1.671875zm0.984375 -4.15625q0 1.359375 0.53125 1.984375q0.546875 0.625 1.359375 0.625q0.796875 0 1.34375 -0.625q0.546875 -0.625 0.546875 -1.953125q0 -1.265625 -0.5625 -1.90625q-0.5625 -0.640625 -1.359375 -0.640625q-0.765625 0 -1.3125 0.640625q-0.546875 0.625 -0.546875 1.875z" fill-rule="nonzero"/><path fill="#000000" d="m269.5775 532.08136l1.15625 -0.1875q0.109375 0.703125 0.546875 1.078125q0.453125 0.359375 1.25 0.359375q0.8125 0 1.203125 -0.328125q0.390625 -0.328125 0.390625 -0.765625q0 -0.390625 -0.359375 -0.625q-0.234375 -0.15625 -1.1875 -0.390625q-1.296875 -0.328125 -1.796875 -0.5625q-0.484375 -0.25 -0.75 -0.65625q-0.25 -0.421875 -0.25 -0.9375q0 -0.453125 0.203125 -0.84375q0.21875 -0.40625 0.578125 -0.671875q0.28125 -0.1875 0.75 -0.328125q0.46875 -0.140625 1.015625 -0.140625q0.8125 0 1.421875 0.234375q0.609375 0.234375 0.90625 0.640625q0.296875 0.390625 0.40625 1.0625l-1.140625 0.15625q-0.078125 -0.53125 -0.453125 -0.828125q-0.375 -0.3125 -1.0625 -0.3125q-0.8125 0 -1.15625 0.265625q-0.34375 0.265625 -0.34375 0.625q0 0.234375 0.140625 0.421875q0.15625 0.1875 0.453125 0.3125q0.171875 0.0625 1.03125 0.296875q1.25 0.328125 1.734375 0.546875q0.5 0.203125 0.78125 0.609375q0.28125 0.40625 0.28125 1.0q0 0.59375 -0.34375 1.109375q-0.34375 0.515625 -1.0 0.796875q-0.640625 0.28125 -1.453125 0.28125q-1.34375 0 -2.046875 -0.5625q-0.703125 -0.5625 -0.90625 -1.65625zm7.1328125 4.71875l0 -9.5625l1.078125 0l0 0.890625q0.375 -0.53125 0.84375 -0.78125q0.484375 -0.265625 1.15625 -0.265625q0.875 0 1.546875 0.453125q0.6875 0.453125 1.03125 1.28125q0.34375 0.828125 0.34375 1.828125q0 1.046875 -0.375 1.90625q-0.375 0.84375 -1.109375 1.296875q-0.71875 0.453125 -1.53125 0.453125q-0.578125 0 -1.046875 -0.25q-0.46875 -0.25 -0.765625 -0.625l0 3.375l-1.171875 0zm1.0625 -6.078125q0 1.34375 0.53125 1.984375q0.546875 0.625 1.3125 0.625q0.78125 0 1.34375 -0.65625q0.5625 -0.65625 0.5625 -2.046875q0 -1.3125 -0.546875 -1.96875q-0.546875 -0.671875 -1.296875 -0.671875q-0.75 0 -1.328125 0.703125q-0.578125 0.703125 -0.578125 2.03125zm6.3656006 -4.765625l0 -1.359375l1.171875 0l0 1.359375l-1.171875 0zm0 8.1875l0 -6.90625l1.171875 0l0 6.90625l-1.171875 0zm2.96109 0l0 -9.546875l1.171875 0l0 5.453125l2.765625 -2.8125l1.515625 0l-2.640625 2.5625l2.90625 4.34375l-1.4375 0l-2.28125 -3.53125l-0.828125 0.796875l0 2.734375l-1.171875 0zm11.3828125 -2.21875l1.203125 0.140625q-0.28125 1.0625 -1.0625 1.65625q-0.765625 0.578125 -1.96875 0.578125q-1.515625 0 -2.40625 -0.9375q-0.890625 -0.9375 -0.890625 -2.609375q0 -1.75 0.890625 -2.703125q0.90625 -0.96875 2.34375 -0.96875q1.390625 0 2.265625 0.9375q0.875 0.9375 0.875 2.65625q0 0.109375 0 0.3125l-5.15625 0q0.0625 1.140625 0.640625 1.75q0.578125 0.59375 1.4375 0.59375q0.65625 0 1.109375 -0.328125q0.453125 -0.34375 0.71875 -1.078125zm-3.84375 -1.90625l3.859375 0q-0.078125 -0.859375 -0.4375 -1.296875q-0.5625 -0.6875 -1.453125 -0.6875q-0.8125 0 -1.359375 0.546875q-0.546875 0.53125 -0.609375 1.4375zm6.0531006 2.0625l1.15625 -0.1875q0.109375 0.703125 0.546875 1.078125q0.453125 0.359375 1.25 0.359375q0.8125 0 1.203125 -0.328125q0.390625 -0.328125 0.390625 -0.765625q0 -0.390625 -0.359375 -0.625q-0.234375 -0.15625 -1.1875 -0.390625q-1.296875 -0.328125 -1.796875 -0.5625q-0.484375 -0.25 -0.75 -0.65625q-0.25 -0.421875 -0.25 -0.9375q0 -0.453125 0.203125 -0.84375q0.21875 -0.40625 0.578125 -0.671875q0.28125 -0.1875 0.75 -0.328125q0.46875 -0.140625 1.015625 -0.140625q0.8125 0 1.421875 0.234375q0.609375 0.234375 0.90625 0.640625q0.296875 0.390625 0.40625 1.0625l-1.140625 0.15625q-0.078125 -0.53125 -0.453125 -0.828125q-0.375 -0.3125 -1.0625 -0.3125q-0.8125 0 -1.15625 0.265625q-0.34375 0.265625 -0.34375 0.625q0 0.234375 0.140625 0.421875q0.15625 0.1875 0.453125 0.3125q0.171875 0.0625 1.03125 0.296875q1.25 0.328125 1.734375 0.546875q0.5 0.203125 0.78125 0.609375q0.28125 0.40625 0.28125 1.0q0 0.59375 -0.34375 1.109375q-0.34375 0.515625 -1.0 0.796875q-0.640625 0.28125 -1.453125 0.28125q-1.34375 0 -2.046875 -0.5625q-0.703125 -0.5625 -0.90625 -1.65625z" fill-rule="nonzero"/><path fill="#cfe2f3" d="m409.41208 231.8204l0 0c0 -7.314514 5.9295654 -13.244095 13.24408 -13.244095l0 0c3.5125732 0 6.881256 1.3953552 9.36499 3.8791046c2.4837646 2.4837494 3.8791199 5.8524475 3.8791199 9.36499l0 0c0 7.314514 -5.929596 13.244095 -13.24411 13.244095l0 0c-7.314514 0 -13.24408 -5.9295807 -13.24408 -13.244095z" fill-rule="evenodd"/><path stroke="#000000" stroke-width="1.0" stroke-linejoin="round" stroke-linecap="butt" d="m409.41208 231.8204l0 0c0 -7.314514 5.9295654 -13.244095 13.24408 -13.244095l0 0c3.5125732 0 6.881256 1.3953552 9.36499 3.8791046c2.4837646 2.4837494 3.8791199 5.8524475 3.8791199 9.36499l0 0c0 7.314514 -5.929596 13.244095 -13.24411 13.244095l0 0c-7.314514 0 -13.24408 -5.9295807 -13.24408 -13.244095z" fill-rule="evenodd"/><path fill="#000000" d="m417.40225 234.50041l0 -5.734375l0.75 0l0 5.734375l-0.75 0zm2.0976562 0l0 -5.734375l2.15625 0q0.5625 0 0.875 0.0625q0.421875 0.0625 0.703125 0.265625q0.28125 0.203125 0.453125 0.5625q0.171875 0.34375 0.171875 0.765625q0 0.734375 -0.46875 1.25q-0.453125 0.5 -1.671875 0.5l-1.46875 0l0 2.328125l-0.75 0zm0.75 -3.0l1.484375 0q0.734375 0 1.03125 -0.265625q0.3125 -0.28125 0.3125 -0.78125q0 -0.359375 -0.1875 -0.609375q-0.171875 -0.265625 -0.46875 -0.34375q-0.1875 -0.046875 -0.703125 -0.046875l-1.46875 0l0 2.046875zm4.3046875 1.484375l0.703125 -0.09375q0.109375 0.59375 0.40625 0.859375q0.296875 0.265625 0.703125 0.265625q0.5 0 0.84375 -0.34375q0.34375 -0.34375 0.34375 -0.84375q0 -0.484375 -0.328125 -0.796875q-0.3125 -0.328125 -0.796875 -0.328125q-0.203125 0 -0.5 0.078125l0.078125 -0.609375q0.078125 0 0.125 0q0.4375 0 0.796875 -0.234375q0.359375 -0.234375 0.359375 -0.71875q0 -0.390625 -0.265625 -0.640625q-0.25 -0.25 -0.671875 -0.25q-0.40625 0 -0.6875 0.265625q-0.265625 0.25 -0.34375 0.765625l-0.703125 -0.125q0.125 -0.703125 0.578125 -1.09375q0.46875 -0.390625 1.140625 -0.390625q0.46875 0 0.859375 0.203125q0.40625 0.203125 0.609375 0.546875q0.21875 0.34375 0.21875 0.734375q0 0.375 -0.203125 0.6875q-0.203125 0.296875 -0.59375 0.46875q0.515625 0.125 0.796875 0.5q0.28125 0.359375 0.28125 0.921875q0 0.75 -0.546875 1.28125q-0.546875 0.515625 -1.390625 0.515625q-0.75 0 -1.25 -0.453125q-0.5 -0.453125 -0.5625 -1.171875z" fill-rule="nonzero"/><path fill="#d9d9d9" d="m451.91412 253.23192l80.09448 0l0 34.551193l-80.09448 0z" fill-rule="evenodd"/><path stroke="#000000" stroke-width="1.0" stroke-linejoin="round" stroke-linecap="butt" d="m451.91412 253.23192l80.09448 0l0 34.551193l-80.09448 0z" fill-rule="evenodd"/><path fill="#000000" d="m477.8757 267.30753l3.65625 -9.546875l1.359375 0l3.90625 9.546875l-1.4375 0l-1.109375 -2.890625l-3.984375 0l-1.046875 2.890625l-1.34375 0zm2.75 -3.921875l3.234375 0l-1.0 -2.640625q-0.453125 -1.203125 -0.671875 -1.96875q-0.1875 0.90625 -0.515625 1.8125l-1.046875 2.796875zm7.1710205 3.921875l0 -9.546875l1.296875 0l5.015625 7.5l0 -7.5l1.203125 0l0 9.546875l-1.296875 0l-5.015625 -7.5l0 7.5l-1.203125 0zm9.640778 0l0 -9.546875l3.28125 0q1.109375 0 1.703125 0.140625q0.8125 0.1875 1.390625 0.6875q0.765625 0.640625 1.140625 1.640625q0.375 0.984375 0.375 2.25q0 1.09375 -0.265625 1.9375q-0.25 0.828125 -0.65625 1.390625q-0.390625 0.546875 -0.859375 0.859375q-0.46875 0.3125 -1.140625 0.484375q-0.65625 0.15625 -1.53125 0.15625l-3.4375 0zm1.265625 -1.125l2.03125 0q0.9375 0 1.46875 -0.171875q0.546875 -0.1875 0.875 -0.5q0.4375 -0.453125 0.6875 -1.203125q0.25 -0.765625 0.25 -1.84375q0 -1.5 -0.5 -2.296875q-0.484375 -0.8125 -1.1875 -1.078125q-0.5 -0.203125 -1.625 -0.203125l-2.0 0l0 7.296875z" fill-rule="nonzero"/><path fill="#000000" d="m473.48465 279.96378l1.265625 0.3125q-0.390625 1.5625 -1.421875 2.375q-1.03125 0.8125 -2.53125 0.8125q-1.53125 0 -2.5 -0.625q-0.96875 -0.625 -1.484375 -1.8125q-0.5 -1.1875 -0.5 -2.5625q0 -1.484375 0.5625 -2.59375q0.578125 -1.109375 1.625 -1.6875q1.0625 -0.578125 2.328125 -0.578125q1.421875 0 2.390625 0.734375q0.984375 0.71875 1.375 2.046875l-1.25 0.296875q-0.328125 -1.046875 -0.96875 -1.515625q-0.625 -0.484375 -1.578125 -0.484375q-1.09375 0 -1.84375 0.53125q-0.734375 0.53125 -1.03125 1.421875q-0.296875 0.875 -0.296875 1.828125q0 1.21875 0.34375 2.125q0.359375 0.90625 1.109375 1.359375q0.75 0.4375 1.625 0.4375q1.0625 0 1.796875 -0.609375q0.734375 -0.609375 0.984375 -1.8125zm2.2345276 -0.109375q0 -1.921875 1.078125 -2.84375q0.890625 -0.765625 2.171875 -0.765625q1.421875 0 2.328125 0.9375q0.90625 0.921875 0.90625 2.578125q0 1.328125 -0.40625 2.09375q-0.390625 0.765625 -1.15625 1.1875q-0.765625 0.421875 -1.671875 0.421875q-1.453125 0 -2.359375 -0.921875q-0.890625 -0.9375 -0.890625 -2.6875zm1.203125 0q0 1.328125 0.578125 1.984375q0.59375 0.65625 1.46875 0.65625q0.875 0 1.453125 -0.65625q0.578125 -0.671875 0.578125 -2.03125q0 -1.28125 -0.59375 -1.9375q-0.578125 -0.65625 -1.4375 -0.65625q-0.875 0 -1.46875 0.65625q-0.578125 0.65625 -0.578125 1.984375zm11.178101 3.453125l0 -1.015625q-0.8125 1.171875 -2.1875 1.171875q-0.609375 0 -1.140625 -0.234375q-0.53125 -0.234375 -0.796875 -0.578125q-0.25 -0.359375 -0.359375 -0.875q-0.0625 -0.34375 -0.0625 -1.09375l0 -4.28125l1.171875 0l0 3.828125q0 0.921875 0.0625 1.234375q0.109375 0.46875 0.46875 0.734375q0.359375 0.25 0.890625 0.25q0.515625 0 0.984375 -0.265625q0.46875 -0.265625 0.65625 -0.734375q0.1875 -0.46875 0.1875 -1.34375l0 -3.703125l1.171875 0l0 6.90625l-1.046875 0zm2.8812256 2.65625l0 -9.5625l1.078125 0l0 0.890625q0.375 -0.53125 0.84375 -0.78125q0.484375 -0.265625 1.15625 -0.265625q0.875 0 1.546875 0.453125q0.6875 0.453125 1.03125 1.28125q0.34375 0.828125 0.34375 1.828125q0 1.046875 -0.375 1.90625q-0.375 0.84375 -1.109375 1.296875q-0.71875 0.453125 -1.53125 0.453125q-0.578125 0 -1.046875 -0.25q-0.46875 -0.25 -0.765625 -0.625l0 3.375l-1.171875 0zm1.0625 -6.078125q0 1.34375 0.53125 1.984375q0.546875 0.625 1.3125 0.625q0.78125 0 1.34375 -0.65625q0.5625 -0.65625 0.5625 -2.046875q0 -1.3125 -0.546875 -1.96875q-0.546875 -0.671875 -1.296875 -0.671875q-0.75 0 -1.328125 0.703125q-0.578125 0.703125 -0.578125 2.03125zm6.3343506 3.421875l0 -9.546875l1.171875 0l0 9.546875l-1.171875 0zm2.99234 -8.1875l0 -1.359375l1.171875 0l0 1.359375l-1.171875 0zm0 8.1875l0 -6.90625l1.171875 0l0 6.90625l-1.171875 0zm2.945465 0l0 -6.90625l1.0625 0l0 0.984375q0.75 -1.140625 2.1875 -1.140625q0.625 0 1.15625 0.21875q0.53125 0.21875 0.78125 0.59375q0.265625 0.359375 0.375 0.859375q0.0625 0.328125 0.0625 1.140625l0 4.25l-1.171875 0l0 -4.203125q0 -0.71875 -0.140625 -1.0625q-0.140625 -0.359375 -0.484375 -0.5625q-0.34375 -0.21875 -0.8125 -0.21875q-0.75 0 -1.296875 0.46875q-0.546875 0.46875 -0.546875 1.796875l0 3.78125l-1.171875 0zm7.1937256 0.578125l1.140625 0.15625q0.078125 0.53125 0.40625 0.78125q0.4375 0.3125 1.1875 0.3125q0.8125 0 1.25 -0.328125q0.453125 -0.3125 0.609375 -0.90625q0.09375 -0.359375 0.078125 -1.5q-0.765625 0.90625 -1.90625 0.90625q-1.4375 0 -2.21875 -1.03125q-0.78125 -1.03125 -0.78125 -2.46875q0 -0.984375 0.359375 -1.8125q0.359375 -0.84375 1.03125 -1.296875q0.6875 -0.453125 1.609375 -0.453125q1.21875 0 2.015625 0.984375l0 -0.828125l1.078125 0l0 5.96875q0 1.609375 -0.328125 2.28125q-0.328125 0.6875 -1.046875 1.078125q-0.703125 0.390625 -1.75 0.390625q-1.234375 0 -2.0 -0.5625q-0.75 -0.5625 -0.734375 -1.671875zm0.984375 -4.15625q0 1.359375 0.53125 1.984375q0.546875 0.625 1.359375 0.625q0.796875 0 1.34375 -0.625q0.546875 -0.625 0.546875 -1.953125q0 -1.265625 -0.5625 -1.90625q-0.5625 -0.640625 -1.359375 -0.640625q-0.765625 0 -1.3125 0.640625q-0.546875 0.625 -0.546875 1.875z" fill-rule="nonzero"/><path fill="#cfe2f3" d="m540.1417 312.0806l0 0c0 -7.3144836 5.9295654 -13.24408 13.24408 -13.24408l0 0c3.5125732 0 6.8812866 1.3953552 9.36499 3.8790894c2.4837646 2.4837646 3.8791504 5.8524475 3.8791504 9.36499l0 0c0 7.314514 -5.9296265 13.24411 -13.244141 13.24411l0 0c-7.314514 0 -13.24408 -5.929596 -13.24408 -13.24411z" fill-rule="evenodd"/><path stroke="#000000" stroke-width="1.0" stroke-linejoin="round" stroke-linecap="butt" d="m540.1417 312.0806l0 0c0 -7.3144836 5.9295654 -13.24408 13.24408 -13.24408l0 0c3.5125732 0 6.8812866 1.3953552 9.36499 3.8790894c2.4837646 2.4837646 3.8791504 5.8524475 3.8791504 9.36499l0 0c0 7.314514 -5.9296265 13.24411 -13.244141 13.24411l0 0c-7.314514 0 -13.24408 -5.929596 -13.24408 -13.24411z" fill-rule="evenodd"/><path fill="#000000" d="m548.97565 314.76062l0 -5.734375l0.75 0l0 2.84375l2.84375 -2.84375l1.03125 0l-2.40625 2.328125l2.515625 3.40625l-1.0 0l-2.046875 -2.90625l-0.9375 0.921875l0 1.984375l-0.75 0zm6.7421875 -0.921875l0 -1.578125l-1.546875 0l0 -0.65625l1.546875 0l0 -1.5625l0.671875 0l0 1.5625l1.5625 0l0 0.65625l-1.5625 0l0 1.578125l-0.671875 0z" fill-rule="nonzero"/><path fill="#cfe2f3" d="m478.65222 224.2441l0 0c0 -7.314514 5.929596 -13.244095 13.24411 -13.244095l0 0c3.5125427 0 6.8812256 1.3953552 9.36499 3.8791046c2.4837341 2.4837494 3.8790894 5.8524323 3.8790894 9.36499l0 0c0 7.314514 -5.9295654 13.244095 -13.24408 13.244095l0 0c-7.314514 0 -13.24411 -5.9295807 -13.24411 -13.244095z" fill-rule="evenodd"/><path stroke="#000000" stroke-width="1.0" stroke-linejoin="round" stroke-linecap="butt" d="m478.65222 224.2441l0 0c0 -7.314514 5.929596 -13.244095 13.24411 -13.244095l0 0c3.5125427 0 6.8812256 1.3953552 9.36499 3.8791046c2.4837341 2.4837494 3.8790894 5.8524323 3.8790894 9.36499l0 0c0 7.314514 -5.9295654 13.244095 -13.24408 13.244095l0 0c-7.314514 0 -13.24411 -5.9295807 -13.24411 -13.244095z" fill-rule="evenodd"/><path fill="#000000" d="m491.48618 224.90846l0.765625 0.203125q-0.25 0.921875 -0.875 1.421875q-0.609375 0.484375 -1.5 0.484375q-0.921875 0 -1.515625 -0.375q-0.578125 -0.375 -0.875 -1.09375q-0.296875 -0.71875 -0.296875 -1.53125q0 -0.890625 0.328125 -1.5625q0.34375 -0.671875 0.96875 -1.015625q0.640625 -0.34375 1.40625 -0.34375q0.859375 0 1.4375 0.4375q0.59375 0.4375 0.8125 1.234375l-0.734375 0.171875q-0.203125 -0.625 -0.59375 -0.90625q-0.375 -0.28125 -0.9375 -0.28125q-0.671875 0 -1.109375 0.3125q-0.4375 0.3125 -0.625 0.84375q-0.171875 0.53125 -0.171875 1.109375q0 0.71875 0.203125 1.265625q0.21875 0.546875 0.65625 0.828125q0.453125 0.265625 0.984375 0.265625q0.640625 0 1.078125 -0.359375q0.4375 -0.375 0.59375 -1.109375zm4.3085938 1.5q-0.390625 0.328125 -0.75 0.46875q-0.359375 0.140625 -0.78125 0.140625q-0.671875 0 -1.046875 -0.328125q-0.359375 -0.34375 -0.359375 -0.859375q0 -0.3125 0.125 -0.5625q0.140625 -0.25 0.359375 -0.390625q0.234375 -0.15625 0.515625 -0.234375q0.203125 -0.0625 0.625 -0.109375q0.859375 -0.109375 1.25 -0.25q0.015625 -0.140625 0.015625 -0.171875q0 -0.4375 -0.203125 -0.609375q-0.265625 -0.234375 -0.796875 -0.234375q-0.5 0 -0.734375 0.171875q-0.234375 0.171875 -0.359375 0.609375l-0.6875 -0.09375q0.09375 -0.4375 0.3125 -0.703125q0.21875 -0.28125 0.625 -0.421875q0.40625 -0.15625 0.9375 -0.15625q0.53125 0 0.859375 0.125q0.34375 0.125 0.5 0.328125q0.15625 0.1875 0.21875 0.46875q0.03125 0.1875 0.03125 0.65625l0 0.9375q0 0.96875 0.046875 1.234375q0.046875 0.265625 0.171875 0.5l-0.734375 0q-0.109375 -0.21875 -0.140625 -0.515625zm-0.0625 -1.5625q-0.375 0.15625 -1.140625 0.265625q-0.4375 0.0625 -0.625 0.140625q-0.171875 0.078125 -0.265625 0.234375q-0.09375 0.140625 -0.09375 0.328125q0 0.28125 0.203125 0.46875q0.21875 0.1875 0.625 0.1875q0.40625 0 0.71875 -0.171875q0.328125 -0.1875 0.46875 -0.5q0.109375 -0.234375 0.109375 -0.703125l0 -0.25z" fill-rule="nonzero"/><path fill="#cfe2f3" d="m455.86746 599.9554l0 0c0 -7.314514 5.9295654 -13.24408 13.24408 -13.24408l0 0c3.5125732 0 6.881256 1.3953247 9.36499 3.8790894c2.4837646 2.4837646 3.8791199 5.852417 3.8791199 9.36499l0 0c0 7.314514 -5.929596 13.24408 -13.24411 13.24408l0 0c-7.314514 0 -13.24408 -5.9295654 -13.24408 -13.24408z" fill-rule="evenodd"/><path stroke="#000000" stroke-width="1.0" stroke-linejoin="round" stroke-linecap="butt" d="m455.86746 599.9554l0 0c0 -7.314514 5.9295654 -13.24408 13.24408 -13.24408l0 0c3.5125732 0 6.881256 1.3953247 9.36499 3.8790894c2.4837646 2.4837646 3.8791199 5.852417 3.8791199 9.36499l0 0c0 7.314514 -5.929596 13.24408 -13.24411 13.24408l0 0c-7.314514 0 -13.24408 -5.9295654 -13.24408 -13.24408z" fill-rule="evenodd"/><path fill="#000000" d="m463.85764 602.6354l0 -5.734375l0.75 0l0 5.734375l-0.75 0zm2.0976562 0l0 -5.734375l2.15625 0q0.5625 0 0.875 0.0625q0.421875 0.0625 0.703125 0.265625q0.28125 0.203125 0.453125 0.5625q0.171875 0.34375 0.171875 0.765625q0 0.734375 -0.46875 1.25q-0.453125 0.5 -1.671875 0.5l-1.46875 0l0 2.328125l-0.75 0zm0.75 -3.0l1.484375 0q0.734375 0 1.03125 -0.265625q0.3125 -0.28125 0.3125 -0.78125q0 -0.359375 -0.1875 -0.609375q-0.171875 -0.265625 -0.46875 -0.34375q-0.1875 -0.046875 -0.703125 -0.046875l-1.46875 0l0 2.046875zm4.3046875 1.484375l0.703125 -0.09375q0.109375 0.59375 0.40625 0.859375q0.296875 0.265625 0.703125 0.265625q0.5 0 0.84375 -0.34375q0.34375 -0.34375 0.34375 -0.84375q0 -0.484375 -0.328125 -0.796875q-0.3125 -0.328125 -0.796875 -0.328125q-0.203125 0 -0.5 0.078125l0.078125 -0.609375q0.078125 0 0.125 0q0.4375 0 0.796875 -0.234375q0.359375 -0.234375 0.359375 -0.71875q0 -0.390625 -0.265625 -0.640625q-0.25 -0.25 -0.671875 -0.25q-0.40625 0 -0.6875 0.265625q-0.265625 0.25 -0.34375 0.765625l-0.703125 -0.125q0.125 -0.703125 0.578125 -1.09375q0.46875 -0.390625 1.140625 -0.390625q0.46875 0 0.859375 0.203125q0.40625 0.203125 0.609375 0.546875q0.21875 0.34375 0.21875 0.734375q0 0.375 -0.203125 0.6875q-0.203125 0.296875 -0.59375 0.46875q0.515625 0.125 0.796875 0.5q0.28125 0.359375 0.28125 0.921875q0 0.75 -0.546875 1.28125q-0.546875 0.515625 -1.390625 0.515625q-0.75 0 -1.25 -0.453125q-0.5 -0.453125 -0.5625 -1.171875z" fill-rule="nonzero"/><path fill="#cfe2f3" d="m503.86746 599.9554l0 0c0 -7.314514 5.9295654 -13.24408 13.24411 -13.24408l0 0c3.5125122 0 6.8812256 1.3953247 9.36499 3.8790894c2.4837036 2.4837646 3.8790894 5.852417 3.8790894 9.36499l0 0c0 7.314514 -5.9295654 13.24408 -13.24408 13.24408l0 0c-7.3145447 0 -13.24411 -5.9295654 -13.24411 -13.24408z" fill-rule="evenodd"/><path stroke="#000000" stroke-width="1.0" stroke-linejoin="round" stroke-linecap="butt" d="m503.86746 599.9554l0 0c0 -7.314514 5.9295654 -13.24408 13.24411 -13.24408l0 0c3.5125122 0 6.8812256 1.3953247 9.36499 3.8790894c2.4837036 2.4837646 3.8790894 5.852417 3.8790894 9.36499l0 0c0 7.314514 -5.9295654 13.24408 -13.24408 13.24408l0 0c-7.3145447 0 -13.24411 -5.9295654 -13.24411 -13.24408z" fill-rule="evenodd"/><path fill="#000000" d="m512.7014 602.6354l0 -5.734375l0.75 0l0 2.84375l2.84375 -2.84375l1.03125 0l-2.40625 2.328125l2.515625 3.40625l-1.0 0l-2.046875 -2.90625l-0.9375 0.921875l0 1.984375l-0.75 0zm6.7421875 -0.921875l0 -1.578125l-1.546875 0l0 -0.65625l1.546875 0l0 -1.5625l0.671875 0l0 1.5625l1.5625 0l0 0.65625l-1.5625 0l0 1.578125l-0.671875 0z" fill-rule="nonzero"/><path fill="#cfe2f3" d="m480.35565 628.95667l0 0c0 -7.314453 5.9295654 -13.24408 13.24408 -13.24408l0 0c3.5125732 0 6.881256 1.3953857 9.36499 3.8790894c2.4837646 2.4837646 3.8791199 5.852478 3.8791199 9.36499l0 0c0 7.314514 -5.929596 13.244141 -13.24411 13.244141l0 0c-7.314514 0 -13.24408 -5.9296265 -13.24408 -13.244141z" fill-rule="evenodd"/><path stroke="#000000" stroke-width="1.0" stroke-linejoin="round" stroke-linecap="butt" d="m480.35565 628.95667l0 0c0 -7.314453 5.9295654 -13.24408 13.24408 -13.24408l0 0c3.5125732 0 6.881256 1.3953857 9.36499 3.8790894c2.4837646 2.4837646 3.8791199 5.852478 3.8791199 9.36499l0 0c0 7.314514 -5.929596 13.244141 -13.24411 13.244141l0 0c-7.314514 0 -13.24408 -5.9296265 -13.24408 -13.244141z" fill-rule="evenodd"/><path fill="#000000" d="m493.18958 629.6211l0.765625 0.203125q-0.25 0.921875 -0.875 1.421875q-0.609375 0.484375 -1.5 0.484375q-0.921875 0 -1.515625 -0.375q-0.578125 -0.375 -0.875 -1.09375q-0.296875 -0.71875 -0.296875 -1.53125q0 -0.890625 0.328125 -1.5625q0.34375 -0.671875 0.96875 -1.015625q0.640625 -0.34375 1.40625 -0.34375q0.859375 0 1.4375 0.4375q0.59375 0.4375 0.8125 1.234375l-0.734375 0.171875q-0.203125 -0.625 -0.59375 -0.90625q-0.375 -0.28125 -0.9375 -0.28125q-0.671875 0 -1.109375 0.3125q-0.4375 0.3125 -0.625 0.84375q-0.171875 0.53125 -0.171875 1.109375q0 0.71875 0.203125 1.265625q0.21875 0.546875 0.65625 0.828125q0.453125 0.265625 0.984375 0.265625q0.640625 0 1.078125 -0.359375q0.4375 -0.375 0.59375 -1.109375zm4.3085938 1.5q-0.390625 0.328125 -0.75 0.46875q-0.359375 0.140625 -0.78125 0.140625q-0.671875 0 -1.046875 -0.328125q-0.359375 -0.34375 -0.359375 -0.859375q0 -0.3125 0.125 -0.5625q0.140625 -0.25 0.359375 -0.390625q0.234375 -0.15625 0.515625 -0.234375q0.203125 -0.0625 0.625 -0.109375q0.859375 -0.109375 1.25 -0.25q0.015625 -0.140625 0.015625 -0.171875q0 -0.4375 -0.203125 -0.609375q-0.265625 -0.234375 -0.796875 -0.234375q-0.5 0 -0.734375 0.171875q-0.234375 0.171875 -0.359375 0.609375l-0.6875 -0.09375q0.09375 -0.4375 0.3125 -0.703125q0.21875 -0.28125 0.625 -0.421875q0.40625 -0.15625 0.9375 -0.15625q0.53125 0 0.859375 0.125q0.34375 0.125 0.5 0.328125q0.15625 0.1875 0.21875 0.46875q0.03125 0.1875 0.03125 0.65625l0 0.9375q0 0.96875 0.046875 1.234375q0.046875 0.265625 0.171875 0.5l-0.734375 0q-0.109375 -0.21875 -0.140625 -0.515625zm-0.0625 -1.5625q-0.375 0.15625 -1.140625 0.265625q-0.4375 0.0625 -0.625 0.140625q-0.171875 0.078125 -0.265625 0.234375q-0.09375 0.140625 -0.09375 0.328125q0 0.28125 0.203125 0.46875q0.21875 0.1875 0.625 0.1875q0.40625 0 0.71875 -0.171875q0.328125 -0.1875 0.46875 -0.5q0.109375 -0.234375 0.109375 -0.703125l0 -0.25z" fill-rule="nonzero"/><path fill="#000000" fill-opacity="0.0" d="m425.0064 553.48804l34.740143 37.102356" fill-rule="evenodd"/><path stroke="#000000" stroke-width="1.0" stroke-linejoin="round" stroke-linecap="butt" d="m425.0064 553.48804l30.639221 32.722595" fill-rule="evenodd"/><path fill="#000000" stroke="#000000" stroke-width="1.0" stroke-linecap="butt" d="m454.43994 587.33954l4.307434 2.1837158l-1.8960571 -4.4415894z" fill-rule="evenodd"/><path fill="#000000" fill-opacity="0.0" d="m539.01196 542.4959l-12.5354 48.094482" fill-rule="evenodd"/><path stroke="#000000" stroke-width="1.0" stroke-linejoin="round" stroke-linecap="butt" d="m539.01196 542.4959l-11.022156 42.288452" fill-rule="evenodd"/><path fill="#000000" stroke="#000000" stroke-width="1.0" stroke-linecap="butt" d="m526.3915 584.3678l0.4537964 4.8079224l2.74292 -3.9747925z" fill-rule="evenodd"/><path fill="#000000" fill-opacity="0.0" d="m469.11154 613.19946c0 7.8740234 5.62204 15.748047 11.24411 15.748047" fill-rule="evenodd"/><path stroke="#000000" stroke-width="1.0" stroke-linejoin="round" stroke-linecap="butt" d="m469.11154 613.19946c0 7.8740234 5.62204 15.748047 11.24411 15.748047" fill-rule="evenodd"/><path fill="#000000" fill-opacity="0.0" d="m517.1116 613.19946c0 7.8740234 -5.1338806 15.748047 -10.267731 15.748047" fill-rule="evenodd"/><path stroke="#000000" stroke-width="1.0" stroke-linejoin="round" stroke-linecap="butt" d="m517.1116 613.19946c0 7.8740234 -5.1338806 15.748047 -10.267731 15.748047" fill-rule="evenodd"/><path fill="#000000" fill-opacity="0.0" d="m493.59973 615.7126l-1.7007751 -48.125977" fill-rule="evenodd"/><path stroke="#000000" stroke-width="1.0" stroke-linejoin="round" stroke-linecap="butt" d="m493.59973 615.7126l-1.4888916 -42.1297" fill-rule="evenodd"/><path fill="#000000" stroke="#000000" stroke-width="1.0" stroke-linecap="butt" d="m493.76157 573.52454l-1.8109741 -4.4769287l-1.490448 4.593628z" fill-rule="evenodd"/><path fill="#d9d9d9" d="m401.7244 440.58005l115.40158 0l0 51.716553l-115.40158 0z" fill-rule="evenodd"/><path stroke="#000000" stroke-width="1.0" stroke-linejoin="round" stroke-linecap="butt" d="m401.7244 440.58005l115.40158 0l0 51.716553l-115.40158 0z" fill-rule="evenodd"/><path fill="#000000" d="m413.40186 463.2383l0 -9.546875l1.296875 0l5.015625 7.5l0 -7.5l1.203125 0l0 9.546875l-1.296875 0l-5.015625 -7.5l0 7.5l-1.203125 0zm8.593903 0l3.65625 -9.546875l1.359375 0l3.90625 9.546875l-1.4375 0l-1.109375 -2.890625l-3.984375 0l-1.046875 2.890625l-1.34375 0zm2.75 -3.921875l3.234375 0l-1.0 -2.640625q-0.453125 -1.203125 -0.671875 -1.96875q-0.1875 0.90625 -0.515625 1.8125l-1.046875 2.796875zm7.1710205 3.921875l0 -9.546875l1.296875 0l5.015625 7.5l0 -7.5l1.203125 0l0 9.546875l-1.296875 0l-5.015625 -7.5l0 7.5l-1.203125 0zm9.640778 0l0 -9.546875l3.28125 0q1.109375 0 1.703125 0.140625q0.8125 0.1875 1.390625 0.6875q0.765625 0.640625 1.140625 1.640625q0.375 0.984375 0.375 2.25q0 1.09375 -0.265625 1.9375q-0.25 0.828125 -0.65625 1.390625q-0.390625 0.546875 -0.859375 0.859375q-0.46875 0.3125 -1.140625 0.484375q-0.65625 0.15625 -1.53125 0.15625l-3.4375 0zm1.265625 -1.125l2.03125 0q0.9375 0 1.46875 -0.171875q0.546875 -0.1875 0.875 -0.5q0.4375 -0.453125 0.6875 -1.203125q0.25 -0.765625 0.25 -1.84375q0 -1.5 -0.5 -2.296875q-0.484375 -0.8125 -1.1875 -1.078125q-0.5 -0.203125 -1.625 -0.203125l-2.0 0l0 7.296875zm18.859375 -2.21875l1.265625 0.3125q-0.390625 1.5625 -1.421875 2.375q-1.03125 0.8125 -2.53125 0.8125q-1.53125 0 -2.5 -0.625q-0.96875 -0.625 -1.484375 -1.8125q-0.5 -1.1875 -0.5 -2.5625q0 -1.484375 0.5625 -2.59375q0.578125 -1.109375 1.625 -1.6875q1.0625 -0.578125 2.328125 -0.578125q1.421875 0 2.390625 0.734375q0.984375 0.71875 1.375 2.046875l-1.25 0.296875q-0.328125 -1.046875 -0.96875 -1.515625q-0.625 -0.484375 -1.578125 -0.484375q-1.09375 0 -1.84375 0.53125q-0.734375 0.53125 -1.03125 1.421875q-0.296875 0.875 -0.296875 1.828125q0 1.21875 0.34375 2.125q0.359375 0.90625 1.109375 1.359375q0.75 0.4375 1.625 0.4375q1.0625 0 1.796875 -0.609375q0.734375 -0.609375 0.984375 -1.8125zm2.2345276 -0.109375q0 -1.921875 1.078125 -2.84375q0.890625 -0.765625 2.171875 -0.765625q1.421875 0 2.328125 0.9375q0.90625 0.921875 0.90625 2.578125q0 1.328125 -0.40625 2.09375q-0.390625 0.765625 -1.15625 1.1875q-0.765625 0.421875 -1.671875 0.421875q-1.453125 0 -2.359375 -0.921875q-0.890625 -0.9375 -0.890625 -2.6875zm1.203125 0q0 1.328125 0.578125 1.984375q0.59375 0.65625 1.46875 0.65625q0.875 0 1.453125 -0.65625q0.578125 -0.671875 0.578125 -2.03125q0 -1.28125 -0.59375 -1.9375q-0.578125 -0.65625 -1.4375 -0.65625q-0.875 0 -1.46875 0.65625q-0.578125 0.65625 -0.578125 1.984375zm11.178101 3.453125l0 -1.015625q-0.8125 1.171875 -2.1875 1.171875q-0.609375 0 -1.140625 -0.234375q-0.53125 -0.234375 -0.796875 -0.578125q-0.25 -0.359375 -0.359375 -0.875q-0.0625 -0.34375 -0.0625 -1.09375l0 -4.28125l1.171875 0l0 3.828125q0 0.921875 0.0625 1.234375q0.109375 0.46875 0.46875 0.734375q0.359375 0.25 0.890625 0.25q0.515625 0 0.984375 -0.265625q0.46875 -0.265625 0.65625 -0.734375q0.1875 -0.46875 0.1875 -1.34375l0 -3.703125l1.171875 0l0 6.90625l-1.046875 0zm2.8812256 2.65625l0 -9.5625l1.078125 0l0 0.890625q0.375 -0.53125 0.84375 -0.78125q0.484375 -0.265625 1.15625 -0.265625q0.875 0 1.546875 0.453125q0.6875 0.453125 1.03125 1.28125q0.34375 0.828125 0.34375 1.828125q0 1.046875 -0.375 1.90625q-0.375 0.84375 -1.109375 1.296875q-0.71875 0.453125 -1.53125 0.453125q-0.578125 0 -1.046875 -0.25q-0.46875 -0.25 -0.765625 -0.625l0 3.375l-1.171875 0zm1.0625 -6.078125q0 1.34375 0.53125 1.984375q0.546875 0.625 1.3125 0.625q0.78125 0 1.34375 -0.65625q0.5625 -0.65625 0.5625 -2.046875q0 -1.3125 -0.546875 -1.96875q-0.546875 -0.671875 -1.296875 -0.671875q-0.75 0 -1.328125 0.703125q-0.578125 0.703125 -0.578125 2.03125zm6.3343506 3.421875l0 -9.546875l1.171875 0l0 9.546875l-1.171875 0zm2.99234 -8.1875l0 -1.359375l1.171875 0l0 1.359375l-1.171875 0zm0 8.1875l0 -6.90625l1.171875 0l0 6.90625l-1.171875 0zm2.945465 0l0 -6.90625l1.0625 0l0 0.984375q0.75 -1.140625 2.1875 -1.140625q0.625 0 1.15625 0.21875q0.53125 0.21875 0.78125 0.59375q0.265625 0.359375 0.375 0.859375q0.0625 0.328125 0.0625 1.140625l0 4.25l-1.171875 0l0 -4.203125q0 -0.71875 -0.140625 -1.0625q-0.140625 -0.359375 -0.484375 -0.5625q-0.34375 -0.21875 -0.8125 -0.21875q-0.75 0 -1.296875 0.46875q-0.546875 0.46875 -0.546875 1.796875l0 3.78125l-1.171875 0zm7.1937256 0.578125l1.140625 0.15625q0.078125 0.53125 0.40625 0.78125q0.4375 0.3125 1.1875 0.3125q0.8125 0 1.25 -0.328125q0.453125 -0.3125 0.609375 -0.90625q0.09375 -0.359375 0.078125 -1.5q-0.765625 0.90625 -1.90625 0.90625q-1.4375 0 -2.21875 -1.03125q-0.78125 -1.03125 -0.78125 -2.46875q0 -0.984375 0.359375 -1.8125q0.359375 -0.84375 1.03125 -1.296875q0.6875 -0.453125 1.609375 -0.453125q1.21875 0 2.015625 0.984375l0 -0.828125l1.078125 0l0 5.96875q0 1.609375 -0.328125 2.28125q-0.328125 0.6875 -1.046875 1.078125q-0.703125 0.390625 -1.75 0.390625q-1.234375 0 -2.0 -0.5625q-0.75 -0.5625 -0.734375 -1.671875zm0.984375 -4.15625q0 1.359375 0.53125 1.984375q0.546875 0.625 1.359375 0.625q0.796875 0 1.34375 -0.625q0.546875 -0.625 0.546875 -1.953125q0 -1.265625 -0.5625 -1.90625q-0.5625 -0.640625 -1.359375 -0.640625q-0.765625 0 -1.3125 0.640625q-0.546875 0.625 -0.546875 1.875z" fill-rule="nonzero"/><path fill="#000000" d="m420.3271 482.0508q-0.984375 -1.234375 -1.65625 -2.875q-0.65625 -1.640625 -0.65625 -3.390625q0 -1.546875 0.5 -2.96875q0.578125 -1.640625 1.8125 -3.28125l0.828125 0q-0.78125 1.359375 -1.03125 1.9375q-0.40625 0.890625 -0.625 1.875q-0.28125 1.21875 -0.28125 2.4375q0 3.140625 1.9375 6.265625l-0.828125 0zm6.7039795 -5.34375l1.15625 0.15625q-0.1875 1.1875 -0.96875 1.859375q-0.78125 0.671875 -1.921875 0.671875q-1.40625 0 -2.28125 -0.921875q-0.859375 -0.9375 -0.859375 -2.65625q0 -1.125 0.375 -1.96875q0.375 -0.84375 1.125 -1.25q0.765625 -0.421875 1.65625 -0.421875q1.125 0 1.84375 0.578125q0.71875 0.5625 0.921875 1.609375l-1.140625 0.171875q-0.171875 -0.703125 -0.59375 -1.046875q-0.40625 -0.359375 -0.984375 -0.359375q-0.890625 0 -1.453125 0.640625q-0.546875 0.640625 -0.546875 2.0q0 1.40625 0.53125 2.03125q0.546875 0.625 1.40625 0.625q0.6875 0 1.140625 -0.421875q0.46875 -0.421875 0.59375 -1.296875zm1.7109375 -0.921875q0 -1.921875 1.078125 -2.84375q0.890625 -0.765625 2.171875 -0.765625q1.421875 0 2.328125 0.9375q0.90625 0.921875 0.90625 2.578125q0 1.328125 -0.40625 2.09375q-0.390625 0.765625 -1.15625 1.1875q-0.765625 0.421875 -1.671875 0.421875q-1.453125 0 -2.359375 -0.921875q-0.890625 -0.9375 -0.890625 -2.6875zm1.203125 0q0 1.328125 0.578125 1.984375q0.59375 0.65625 1.46875 0.65625q0.875 0 1.453125 -0.65625q0.578125 -0.671875 0.578125 -2.03125q0 -1.28125 -0.59375 -1.9375q-0.578125 -0.65625 -1.4375 -0.65625q-0.875 0 -1.46875 0.65625q-0.578125 0.65625 -0.578125 1.984375zm6.6468506 3.453125l0 -6.90625l1.046875 0l0 0.96875q0.328125 -0.515625 0.859375 -0.8125q0.546875 -0.3125 1.234375 -0.3125q0.78125 0 1.265625 0.3125q0.484375 0.3125 0.6875 0.890625q0.828125 -1.203125 2.140625 -1.203125q1.03125 0 1.578125 0.578125q0.5625 0.5625 0.5625 1.734375l0 4.75l-1.171875 0l0 -4.359375q0 -0.703125 -0.125 -1.0q-0.109375 -0.3125 -0.40625 -0.5q-0.296875 -0.1875 -0.703125 -0.1875q-0.71875 0 -1.203125 0.484375q-0.484375 0.484375 -0.484375 1.546875l0 4.015625l-1.171875 0l0 -4.484375q0 -0.78125 -0.296875 -1.171875q-0.28125 -0.390625 -0.921875 -0.390625q-0.5 0 -0.921875 0.265625q-0.421875 0.25 -0.609375 0.75q-0.1875 0.5 -0.1875 1.453125l0 3.578125l-1.171875 0zm11.1180725 -8.1875l0 -1.359375l1.171875 0l0 1.359375l-1.171875 0zm0 8.1875l0 -6.90625l1.171875 0l0 6.90625l-1.171875 0zm2.945465 0l0 -6.90625l1.0625 0l0 0.984375q0.75 -1.140625 2.1875 -1.140625q0.625 0 1.15625 0.21875q0.53125 0.21875 0.78125 0.59375q0.265625 0.359375 0.375 0.859375q0.0625 0.328125 0.0625 1.140625l0 4.25l-1.171875 0l0 -4.203125q0 -0.71875 -0.140625 -1.0625q-0.140625 -0.359375 -0.484375 -0.5625q-0.34375 -0.21875 -0.8125 -0.21875q-0.75 0 -1.296875 0.46875q-0.546875 0.46875 -0.546875 1.796875l0 3.78125l-1.171875 0zm7.1937256 0.578125l1.140625 0.15625q0.078125 0.53125 0.40625 0.78125q0.4375 0.3125 1.1875 0.3125q0.8125 0 1.25 -0.328125q0.453125 -0.3125 0.609375 -0.90625q0.09375 -0.359375 0.078125 -1.5q-0.765625 0.90625 -1.90625 0.90625q-1.4375 0 -2.21875 -1.03125q-0.78125 -1.03125 -0.78125 -2.46875q0 -0.984375 0.359375 -1.8125q0.359375 -0.84375 1.03125 -1.296875q0.6875 -0.453125 1.609375 -0.453125q1.21875 0 2.015625 0.984375l0 -0.828125l1.078125 0l0 5.96875q0 1.609375 -0.328125 2.28125q-0.328125 0.6875 -1.046875 1.078125q-0.703125 0.390625 -1.75 0.390625q-1.234375 0 -2.0 -0.5625q-0.75 -0.5625 -0.734375 -1.671875zm0.984375 -4.15625q0 1.359375 0.53125 1.984375q0.546875 0.625 1.359375 0.625q0.796875 0 1.34375 -0.625q0.546875 -0.625 0.546875 -1.953125q0 -1.265625 -0.5625 -1.90625q-0.5625 -0.640625 -1.359375 -0.640625q-0.765625 0 -1.3125 0.640625q-0.546875 0.625 -0.546875 1.875zm9.881073 1.515625l1.15625 -0.1875q0.109375 0.703125 0.546875 1.078125q0.453125 0.359375 1.25 0.359375q0.8125 0 1.203125 -0.328125q0.390625 -0.328125 0.390625 -0.765625q0 -0.390625 -0.359375 -0.625q-0.234375 -0.15625 -1.1875 -0.390625q-1.296875 -0.328125 -1.796875 -0.5625q-0.484375 -0.25 -0.75 -0.65625q-0.25 -0.421875 -0.25 -0.9375q0 -0.453125 0.203125 -0.84375q0.21875 -0.40625 0.578125 -0.671875q0.28125 -0.1875 0.75 -0.328125q0.46875 -0.140625 1.015625 -0.140625q0.8125 0 1.421875 0.234375q0.609375 0.234375 0.90625 0.640625q0.296875 0.390625 0.40625 1.0625l-1.140625 0.15625q-0.078125 -0.53125 -0.453125 -0.828125q-0.375 -0.3125 -1.0625 -0.3125q-0.8125 0 -1.15625 0.265625q-0.34375 0.265625 -0.34375 0.625q0 0.234375 0.140625 0.421875q0.15625 0.1875 0.453125 0.3125q0.171875 0.0625 1.03125 0.296875q1.25 0.328125 1.734375 0.546875q0.5 0.203125 0.78125 0.609375q0.28125 0.40625 0.28125 1.0q0 0.59375 -0.34375 1.109375q-0.34375 0.515625 -1.0 0.796875q-0.640625 0.28125 -1.453125 0.28125q-1.34375 0 -2.046875 -0.5625q-0.703125 -0.5625 -0.90625 -1.65625zm6.6953125 -1.390625q0 -1.921875 1.078125 -2.84375q0.890625 -0.765625 2.171875 -0.765625q1.421875 0 2.328125 0.9375q0.90625 0.921875 0.90625 2.578125q0 1.328125 -0.40625 2.09375q-0.390625 0.765625 -1.15625 1.1875q-0.765625 0.421875 -1.671875 0.421875q-1.453125 0 -2.359375 -0.921875q-0.890625 -0.9375 -0.890625 -2.6875zm1.203125 0q0 1.328125 0.578125 1.984375q0.59375 0.65625 1.46875 0.65625q0.875 0 1.453125 -0.65625q0.578125 -0.671875 0.578125 -2.03125q0 -1.28125 -0.59375 -1.9375q-0.578125 -0.65625 -1.4375 -0.65625q-0.875 0 -1.46875 0.65625q-0.578125 0.65625 -0.578125 1.984375zm6.2093506 0q0 -1.921875 1.078125 -2.84375q0.890625 -0.765625 2.171875 -0.765625q1.421875 0 2.328125 0.9375q0.90625 0.921875 0.90625 2.578125q0 1.328125 -0.40625 2.09375q-0.390625 0.765625 -1.15625 1.1875q-0.765625 0.421875 -1.671875 0.421875q-1.453125 0 -2.359375 -0.921875q-0.890625 -0.9375 -0.890625 -2.6875zm1.203125 0q0 1.328125 0.578125 1.984375q0.59375 0.65625 1.46875 0.65625q0.875 0 1.453125 -0.65625q0.578125 -0.671875 0.578125 -2.03125q0 -1.28125 -0.59375 -1.9375q-0.578125 -0.65625 -1.4375 -0.65625q-0.875 0 -1.46875 0.65625q-0.578125 0.65625 -0.578125 1.984375zm6.6468506 3.453125l0 -6.90625l1.0625 0l0 0.984375q0.75 -1.140625 2.1875 -1.140625q0.625 0 1.15625 0.21875q0.53125 0.21875 0.78125 0.59375q0.265625 0.359375 0.375 0.859375q0.0625 0.328125 0.0625 1.140625l0 4.25l-1.171875 0l0 -4.203125q0 -0.71875 -0.140625 -1.0625q-0.140625 -0.359375 -0.484375 -0.5625q-0.34375 -0.21875 -0.8125 -0.21875q-0.75 0 -1.296875 0.46875q-0.546875 0.46875 -0.546875 1.796875l0 3.78125l-1.171875 0zm8.178101 2.8125l-0.828125 0q1.9375 -3.125 1.9375 -6.265625q0 -1.21875 -0.28125 -2.421875q-0.21875 -0.984375 -0.609375 -1.875q-0.265625 -0.59375 -1.046875 -1.953125l0.828125 0q1.234375 1.640625 1.8125 3.28125q0.5 1.421875 0.5 2.96875q0 1.75 -0.671875 3.390625q-0.671875 1.640625 -1.640625 2.875z" fill-rule="nonzero"/><path fill="#000000" fill-opacity="0.0" d="m413.29117 222.45541c0 -10.938232 -5.0787354 -16.892227 -10.157471 -21.87648c-5.0787354 -4.984253 -10.157471 -8.998764 -10.157471 -17.997528" fill-rule="evenodd"/><path stroke="#000000" stroke-width="1.0" stroke-linejoin="round" stroke-linecap="butt" d="m413.11475 219.03287l-0.051727295 -0.4534912c-0.1487732 -1.2193604 -0.36697388 -2.3686829 -0.6447449 -3.4558105c-0.55548096 -2.1742554 -1.34906 -4.099716 -2.3013 -5.8391113c-1.904541 -3.4788208 -4.4439087 -6.213379 -6.9832764 -8.705505c-5.0787354 -4.984253 -10.157471 -8.998779 -10.157471 -17.997543" fill-rule="evenodd"/><path fill="#000000" stroke="#000000" stroke-width="1.0" stroke-linecap="butt" d="m413.11475 219.03288l-1.1809998 -1.0652008l1.2821655 3.027771l0.9640198 -3.1435547z" fill-rule="evenodd"/><path fill="#cfe2f3" d="m479.50525 313.92783l0 0c0 -7.314514 5.929596 -13.24411 13.24408 -13.24411l0 0c3.5125732 0 6.881256 1.3953552 9.36499 3.8791199c2.4837646 2.4837341 3.8791199 5.8524475 3.8791199 9.36499l0 0c0 7.314514 -5.929596 13.24408 -13.24411 13.24408l0 0c-7.3144836 0 -13.24408 -5.9295654 -13.24408 -13.24408z" fill-rule="evenodd"/><path stroke="#000000" stroke-width="1.0" stroke-linejoin="round" stroke-linecap="butt" d="m479.50525 313.92783l0 0c0 -7.314514 5.929596 -13.24411 13.24408 -13.24411l0 0c3.5125732 0 6.881256 1.3953552 9.36499 3.8791199c2.4837646 2.4837341 3.8791199 5.8524475 3.8791199 9.36499l0 0c0 7.314514 -5.929596 13.24408 -13.24411 13.24408l0 0c-7.3144836 0 -13.24408 -5.9295654 -13.24408 -13.24408z" fill-rule="evenodd"/><path fill="#000000" d="m492.3392 314.5922l0.765625 0.203125q-0.25 0.921875 -0.875 1.421875q-0.609375 0.484375 -1.5 0.484375q-0.921875 0 -1.515625 -0.375q-0.578125 -0.375 -0.875 -1.09375q-0.296875 -0.71875 -0.296875 -1.53125q0 -0.890625 0.328125 -1.5625q0.34375 -0.671875 0.96875 -1.015625q0.640625 -0.34375 1.40625 -0.34375q0.859375 0 1.4375 0.4375q0.59375 0.4375 0.8125 1.234375l-0.734375 0.171875q-0.203125 -0.625 -0.59375 -0.90625q-0.375 -0.28125 -0.9375 -0.28125q-0.671875 0 -1.109375 0.3125q-0.4375 0.3125 -0.625 0.84375q-0.171875 0.53125 -0.171875 1.109375q0 0.71875 0.203125 1.265625q0.21875 0.546875 0.65625 0.828125q0.453125 0.265625 0.984375 0.265625q0.640625 0 1.078125 -0.359375q0.4375 -0.375 0.59375 -1.109375zm4.3085938 1.5q-0.390625 0.328125 -0.75 0.46875q-0.359375 0.140625 -0.78125 0.140625q-0.671875 0 -1.046875 -0.328125q-0.359375 -0.34375 -0.359375 -0.859375q0 -0.3125 0.125 -0.5625q0.140625 -0.25 0.359375 -0.390625q0.234375 -0.15625 0.515625 -0.234375q0.203125 -0.0625 0.625 -0.109375q0.859375 -0.109375 1.25 -0.25q0.015625 -0.140625 0.015625 -0.171875q0 -0.4375 -0.203125 -0.609375q-0.265625 -0.234375 -0.796875 -0.234375q-0.5 0 -0.734375 0.171875q-0.234375 0.171875 -0.359375 0.609375l-0.6875 -0.09375q0.09375 -0.4375 0.3125 -0.703125q0.21875 -0.28125 0.625 -0.421875q0.40625 -0.15625 0.9375 -0.15625q0.53125 0 0.859375 0.125q0.34375 0.125 0.5 0.328125q0.15625 0.1875 0.21875 0.46875q0.03125 0.1875 0.03125 0.65625l0 0.9375q0 0.96875 0.046875 1.234375q0.046875 0.265625 0.171875 0.5l-0.734375 0q-0.109375 -0.21875 -0.140625 -0.515625zm-0.0625 -1.5625q-0.375 0.15625 -1.140625 0.265625q-0.4375 0.0625 -0.625 0.140625q-0.171875 0.078125 -0.265625 0.234375q-0.09375 0.140625 -0.09375 0.328125q0 0.28125 0.203125 0.46875q0.21875 0.1875 0.625 0.1875q0.40625 0 0.71875 -0.171875q0.328125 -0.1875 0.46875 -0.5q0.109375 -0.234375 0.109375 -0.703125l0 -0.25z" fill-rule="nonzero"/><path fill="#cfe2f3" d="m409.41263 308.76828l0 0c0 -7.314514 5.929596 -13.24411 13.24411 -13.24411l0 0c3.5125427 0 6.8812256 1.3953552 9.36499 3.8791199c2.4837341 2.4837341 3.8790894 5.852417 3.8790894 9.36499l0 0c0 7.314514 -5.929596 13.24408 -13.24408 13.24408l0 0c-7.314514 0 -13.24411 -5.9295654 -13.24411 -13.24408z" fill-rule="evenodd"/><path stroke="#000000" stroke-width="1.0" stroke-linejoin="round" stroke-linecap="butt" d="m409.41263 308.76828l0 0c0 -7.314514 5.929596 -13.24411 13.24411 -13.24411l0 0c3.5125427 0 6.8812256 1.3953552 9.36499 3.8791199c2.4837341 2.4837341 3.8790894 5.852417 3.8790894 9.36499l0 0c0 7.314514 -5.929596 13.24408 -13.24408 13.24408l0 0c-7.314514 0 -13.24411 -5.9295654 -13.24411 -13.24408z" fill-rule="evenodd"/><path fill="#000000" d="m417.40283 311.44827l0 -5.734375l0.75 0l0 5.734375l-0.75 0zm2.0976562 0l0 -5.734375l2.15625 0q0.5625 0 0.875 0.0625q0.421875 0.0625 0.703125 0.265625q0.28125 0.203125 0.453125 0.5625q0.171875 0.34375 0.171875 0.765625q0 0.734375 -0.46875 1.25q-0.453125 0.5 -1.671875 0.5l-1.46875 0l0 2.328125l-0.75 0zm0.75 -3.0l1.484375 0q0.734375 0 1.03125 -0.265625q0.3125 -0.28125 0.3125 -0.78125q0 -0.359375 -0.1875 -0.609375q-0.171875 -0.265625 -0.46875 -0.34375q-0.1875 -0.046875 -0.703125 -0.046875l-1.46875 0l0 2.046875zm4.3046875 1.484375l0.703125 -0.09375q0.109375 0.59375 0.40625 0.859375q0.296875 0.265625 0.703125 0.265625q0.5 0 0.84375 -0.34375q0.34375 -0.34375 0.34375 -0.84375q0 -0.484375 -0.328125 -0.796875q-0.3125 -0.328125 -0.796875 -0.328125q-0.203125 0 -0.5 0.078125l0.078125 -0.609375q0.078125 0 0.125 0q0.4375 0 0.796875 -0.234375q0.359375 -0.234375 0.359375 -0.71875q0 -0.390625 -0.265625 -0.640625q-0.25 -0.25 -0.671875 -0.25q-0.40625 0 -0.6875 0.265625q-0.265625 0.25 -0.34375 0.765625l-0.703125 -0.125q0.125 -0.703125 0.578125 -1.09375q0.46875 -0.390625 1.140625 -0.390625q0.46875 0 0.859375 0.203125q0.40625 0.203125 0.609375 0.546875q0.21875 0.34375 0.21875 0.734375q0 0.375 -0.203125 0.6875q-0.203125 0.296875 -0.59375 0.46875q0.515625 0.125 0.796875 0.5q0.28125 0.359375 0.28125 0.921875q0 0.75 -0.546875 1.28125q-0.546875 0.515625 -1.390625 0.515625q-0.75 0 -1.25 -0.453125q-0.5 -0.453125 -0.5625 -1.171875z" fill-rule="nonzero"/><path fill="#000000" fill-opacity="0.0" d="m422.65674 322.01236c0 7.9921265 -3.0708923 11.98819 -6.141754 15.984253c-3.0708618 3.9960632 -6.1417236 7.9921265 -6.1417236 15.984253" fill-rule="evenodd"/><path stroke="#000000" stroke-width="1.0" stroke-linejoin="round" stroke-linecap="butt" d="m422.44943 325.43317l-0.0058898926 0.048065186c-0.027648926 0.21380615 -0.05783081 0.4242859 -0.0904541 0.6315918c-0.06518555 0.41464233 -0.14016724 0.81658936 -0.22415161 1.2068176c-0.33587646 1.5609436 -0.81570435 2.9346008 -1.3914795 4.18338c-1.1515808 2.497528 -2.6870117 4.495575 -4.2224426 6.4935913c-3.0708618 3.9960632 -6.1417236 7.992157 -6.1417236 15.984283" fill-rule="evenodd"/><path fill="#000000" stroke="#000000" stroke-width="1.0" stroke-linecap="butt" d="m422.44943 325.43317l1.0544739 1.1905518l-0.9356079 -3.1521301l-1.3094177 3.0160828z" fill-rule="evenodd"/><path fill="#000000" fill-opacity="0.0" d="m422.65616 245.0645c0 12.724411 14.629944 25.448807 29.259857 25.448807" fill-rule="evenodd"/><path stroke="#000000" stroke-width="1.0" stroke-linejoin="round" stroke-linecap="butt" d="m422.65616 245.06451c0 6.362198 3.6575012 12.724396 9.143707 17.496063c2.743103 2.3858337 5.9434204 4.3740234 9.372284 5.765747c1.714447 0.6958618 3.486084 1.2426147 5.2862244 1.615387c0.45004272 0.09320068 0.90185547 0.17553711 1.3550415 0.24658203c0.2265625 0.03555298 0.4534912 0.06826782 0.68066406 0.09811401l0.0023498535 3.0517578E-4" fill-rule="evenodd"/><path fill="#000000" stroke="#000000" stroke-width="1.0" stroke-linecap="butt" d="m448.49643 270.28668l-1.1965027 1.04776l3.1573792 -0.91778564l-3.0086365 -1.3264465z" fill-rule="evenodd"/><path fill="#000000" fill-opacity="0.0" d="m422.65674 295.52417c0 -12.503937 14.629913 -25.007874 29.259827 -25.007874" fill-rule="evenodd"/><path stroke="#000000" stroke-width="1.0" stroke-linejoin="round" stroke-linecap="butt" d="m422.65674 295.52417c0 -6.251953 3.6574707 -12.503937 9.143707 -17.192902c2.743103 -2.3444824 5.94339 -4.2982483 9.372284 -5.665863c1.714447 -0.6838074 3.4860535 -1.2210693 5.2862244 -1.5874023c0.45004272 -0.09158325 0.90185547 -0.17248535 1.355011 -0.24230957c0.22659302 -0.03491211 0.4534912 -0.06707764 0.6806946 -0.09640503l0.002105713 -2.4414062E-4" fill-rule="evenodd"/><path fill="#000000" stroke="#000000" stroke-width="1.0" stroke-linecap="butt" d="m448.49673 270.73904l-1.0491028 1.195282l3.0101318 -1.322998l-3.156311 -0.92141724z" fill-rule="evenodd"/><path fill="#000000" fill-opacity="0.0" d="m491.96136 253.23192c0 -3.9358978 -0.01574707 -5.903305 -0.03149414 -7.871811c-0.01574707 -1.9685059 -0.03149414 -3.9381104 -0.03149414 -7.8762207" fill-rule="evenodd"/><path stroke="#000000" stroke-width="1.0" stroke-linejoin="round" stroke-linecap="butt" d="m491.96136 253.23192c0 -3.9358978 -0.01574707 -5.903305 -0.03149414 -7.871811c-0.01574707 -1.9685059 -0.03149414 -3.9381104 -0.03149414 -7.8762207" fill-rule="evenodd"/><path fill="#000000" fill-opacity="0.0" d="m491.89633 211.0c0 -3.3831787 0.01574707 -5.073456 0.03149414 -6.7663727c0.01574707 -1.6929169 0.03149414 -3.3884735 0.03149414 -6.776932" fill-rule="evenodd"/><path stroke="#000000" stroke-width="1.0" stroke-linejoin="round" stroke-linecap="butt" d="m491.89633 211.0c0 -3.3831787 0.01574707 -5.073456 0.03149414 -6.7663574c0.007873535 -0.84646606 0.01574707 -1.693573 0.021636963 -2.752655l0.0024414062 -0.59721375" fill-rule="evenodd"/><path fill="#000000" stroke="#000000" stroke-width="1.0" stroke-linecap="butt" d="m491.95187 200.88377l1.1221313 1.1270142l-1.1178589 -3.0921936l-1.1312866 3.0873108z" fill-rule="evenodd"/><path fill="#000000" fill-opacity="0.0" d="m491.96136 287.7831c0 3.2251587 0.1968689 4.8361816 0.39370728 6.450348c0.19683838 1.6141663 0.39370728 3.2315063 0.39370728 6.463043" fill-rule="evenodd"/><path stroke="#000000" stroke-width="1.0" stroke-linejoin="round" stroke-linecap="butt" d="m491.96136 287.7831c0 3.2251587 0.1968689 4.8361816 0.39370728 6.450348c0.19683838 1.6141663 0.39370728 3.2315063 0.39370728 6.463043" fill-rule="evenodd"/><path fill="#000000" fill-opacity="0.0" d="m492.74933 327.1719c0 2.7627869 -0.21258545 4.1436768 -0.4251709 5.5255737c-0.21261597 1.381897 -0.42520142 2.7647705 -0.42520142 5.529541" fill-rule="evenodd"/><path stroke="#000000" stroke-width="1.0" stroke-linejoin="round" stroke-linecap="butt" d="m492.74933 327.1719c0 2.7627869 -0.21258545 4.1436768 -0.4251709 5.5255737c-0.05316162 0.3454895 -0.10632324 0.6910095 -0.15612793 1.0581665c-0.024902344 0.18359375 -0.04901123 0.3725891 -0.0718689 0.56970215l-0.049682617 0.4777832" fill-rule="evenodd"/><path fill="#000000" stroke="#000000" stroke-width="1.0" stroke-linecap="butt" d="m492.04645 334.80313l-1.0751343 -1.1719666l0.99057007 3.135315l1.2565002 -3.0384827z" fill-rule="evenodd"/><path fill="#000000" fill-opacity="0.0" d="m553.3858 298.83652c0 -14.157471 -10.692871 -28.314972 -21.385803 -28.314972" fill-rule="evenodd"/><path stroke="#000000" stroke-width="1.0" stroke-linejoin="round" stroke-linecap="butt" d="m553.3858 298.83652c0 -7.0787354 -2.6732178 -14.157501 -6.6830444 -19.466553c-2.0049438 -2.6545105 -4.343994 -4.8666077 -6.8501587 -6.4151c-1.2530518 -0.77423096 -2.5479126 -1.3825684 -3.8636475 -1.7973328c-0.16448975 -0.051849365 -0.32928467 -0.10067749 -0.49432373 -0.14642334l-0.09893799 -0.02645874" fill-rule="evenodd"/><path fill="#000000" stroke="#000000" stroke-width="1.0" stroke-linecap="butt" d="m535.3956 270.98465l1.2662354 -0.9623108l-3.213379 0.6967468l2.9094849 1.5317993z" fill-rule="evenodd"/><path fill="#000000" fill-opacity="0.0" d="m553.3858 325.3247c0 6.4724426 13.984253 12.944885 27.968506 12.944885" fill-rule="evenodd"/><path stroke="#000000" stroke-width="1.0" stroke-linejoin="round" stroke-linecap="butt" d="m554.50946 328.56235l0.044677734 0.066833496c0.06866455 0.09817505 0.14019775 0.19604492 0.2144165 0.29360962c0.29699707 0.3902893 0.63842773 0.7758789 1.020813 1.1551208c1.529541 1.5169678 3.7145996 2.9328003 6.336609 4.146393c5.2440796 2.4271545 12.236206 4.045288 19.228333 4.045288" fill-rule="evenodd"/><path fill="#000000" stroke="#000000" stroke-width="1.0" stroke-linecap="butt" d="m554.50946 328.56235l1.4311523 0.6937256l-2.0755005 -2.550293l-0.04937744 3.2877197z" fill-rule="evenodd"/></g></svg>