<svg version="1.1" viewBox="0.0 0.0 456.06299212598424 328.498687664042" fill="none" stroke="none" stroke-linecap="square" stroke-miterlimit="10" xmlns:xlink="http://www.w3.org/1999/xlink" xmlns="http://www.w3.org/2000/svg"><clipPath id="p.0"><path d="m0 0l456.063 0l0 328.4987l-456.063 0l0 -328.4987z" clip-rule="nonzero"/></clipPath><g clip-path="url(#p.0)"><path fill="#000000" fill-opacity="0.0" d="m0 0l456.063 0l0 328.4987l-456.063 0z" fill-rule="evenodd"/><path fill="#000000" fill-opacity="0.0" d="m198.92387 266.2362l75.35387 0l8.370514 -24.328064l7.537628 24.522308l97.81619 0l6.1986084 -25.070877l6.701538 24.629929l53.384857 0" fill-rule="evenodd"/><path stroke="#000000" stroke-width="1.0" stroke-linejoin="round" stroke-linecap="butt" d="m198.92387 266.2362l75.35387 0l8.370514 -24.328064l7.537628 24.522308l97.81619 0l6.1986084 -25.070877l6.701538 24.629929l53.384857 0" fill-rule="evenodd"/><path fill="#000000" fill-opacity="0.0" d="m275.38623 74.14597l0 16.652328l-31.811035 0l0 16.639008" fill-rule="evenodd"/><path stroke="#000000" stroke-width="2.0" stroke-linejoin="round" stroke-linecap="butt" stroke-dasharray="8.0,6.0" d="m275.38623 81.000145l0 9.798157l-31.811035 0l0 9.784828" fill-rule="evenodd"/><path fill="#000000" stroke="#000000" stroke-width="2.0" stroke-linecap="butt" d="m275.38623 81.000145l2.2491455 2.2491684l-2.2491455 -6.179535l-2.249176 6.179535z" fill-rule="evenodd"/><path fill="#000000" stroke="#000000" stroke-width="2.0" stroke-linecap="butt" d="m243.5752 100.58313l-2.249176 -2.2491684l2.249176 6.1795425l2.2491608 -6.1795425z" fill-rule="evenodd"/><path fill="#000000" fill-opacity="0.0" d="m258.76474 95.88189l15.023621 73.79528" fill-rule="evenodd"/><path stroke="#000000" stroke-width="3.0" stroke-linejoin="round" stroke-linecap="butt" d="m258.76474 95.88189l11.432739 56.157097" fill-rule="evenodd"/><path fill="#000000" stroke="#000000" stroke-width="3.0" stroke-linecap="butt" d="m265.3419 153.02751l7.5715637 12.352097l2.1396484 -14.329163z" fill-rule="evenodd"/><path fill="#000000" fill-opacity="0.0" d="m258.7638 100.64042l147.08661 0l0 48.472435l-147.08661 0z" fill-rule="evenodd"/><path fill="#000000" d="m269.96692 137.7273l0 -22.515625l1.84375 0l0 22.515625l-1.84375 0zm4.0 -5.046875l6.609375 -17.1875l2.453125 0l7.03125 17.1875l-16.09375 0zm3.15625 -2.03125l9.5625 0l-3.71875 -9.78125q-0.828125 -2.203125 -1.21875 -3.5625q-0.3125 1.59375 -0.921875 3.28125l-3.703125 10.0625zm22.5625 2.03125l0 -1.578125q-1.1875 1.859375 -3.484375 1.859375q-1.484375 0 -2.734375 -0.8125q-1.25 -0.828125 -1.9375 -2.296875q-0.671875 -1.46875 -0.671875 -3.390625q0 -1.859375 0.609375 -3.375q0.625 -1.515625 1.859375 -2.328125q1.25 -0.8125 2.78125 -0.8125q1.125 0 2.0 0.484375q0.890625 0.46875 1.4375 1.234375l0 -6.171875l2.09375 0l0 17.1875l-1.953125 0zm-6.671875 -6.21875q0 2.390625 1.0 3.578125q1.015625 1.1875 2.390625 1.1875q1.390625 0 2.34375 -1.125q0.96875 -1.140625 0.96875 -3.453125q0 -2.5625 -0.984375 -3.75q-0.984375 -1.203125 -2.421875 -1.203125q-1.40625 0 -2.359375 1.15625q-0.9375 1.140625 -0.9375 3.609375zm12.566406 11.265625l0 -22.515625l1.84375 0l0 22.515625l-1.84375 0zm11.464844 -10.203125l0 -2.125l6.484375 0l0 2.125l-6.484375 0zm19.914062 -2.359375l-11.375 4.859375l0 -2.09375l9.015625 -3.734375l-9.015625 -3.703125l0 -2.09375l11.375 4.796875l0 1.96875zm10.199219 12.5625l0 -22.515625l1.84375 0l0 22.515625l-1.84375 0zm4.0 -5.046875l6.609375 -17.1875l2.453125 0l7.03125 17.1875l-16.09375 0zm3.15625 -2.03125l9.5625 0l-3.71875 -9.78125q-0.828125 -2.203125 -1.21875 -3.5625q-0.3125 1.59375 -0.921875 3.28125l-3.703125 10.0625zm16.78125 2.03125l-3.796875 -12.453125l2.171875 0l1.984375 7.1875l0.734375 2.671875q0.046875 -0.203125 0.640625 -2.5625l1.984375 -7.296875l2.171875 0l1.859375 7.21875l0.625 2.390625l0.71875 -2.40625l2.125 -7.203125l2.046875 0l-3.890625 12.453125l-2.1875 0l-1.984375 -7.453125l-0.46875 -2.125l-2.53125 9.578125l-2.203125 0zm15.660156 5.046875l0 -22.515625l1.84375 0l0 22.515625l-1.84375 0z" fill-rule="nonzero"/><path fill="#000000" fill-opacity="0.0" d="m285.12335 281.39108l113.95276 0l0 48.472443l-113.95276 0z" fill-rule="evenodd"/><path fill="#000000" d="m300.3421 313.4311l0 -15.15625l-5.65625 0l0 -2.03125l13.625 0l0 2.03125l-5.6875 0l0 15.15625l-2.28125 0zm9.144531 -14.75l0 -2.4375l2.109375 0l0 2.4375l-2.109375 0zm0 14.75l0 -12.453125l2.109375 0l0 12.453125l-2.109375 0zm5.3164062 0l0 -12.453125l1.890625 0l0 1.75q0.59375 -0.90625 1.5625 -1.46875q0.96875 -0.5625 2.21875 -0.5625q1.375 0 2.25 0.578125q0.890625 0.578125 1.265625 1.609375q1.46875 -2.1875 3.84375 -2.1875q1.84375 0 2.84375 1.03125q1.0 1.03125 1.0 3.15625l0 8.546875l-2.109375 0l0 -7.84375q0 -1.265625 -0.203125 -1.8125q-0.203125 -0.5625 -0.75 -0.90625q-0.53125 -0.34375 -1.25 -0.34375q-1.3125 0 -2.1875 0.875q-0.859375 0.875 -0.859375 2.796875l0 7.234375l-2.109375 0l0 -8.09375q0 -1.40625 -0.515625 -2.109375q-0.515625 -0.703125 -1.6875 -0.703125q-0.890625 0 -1.65625 0.46875q-0.75 0.46875 -1.09375 1.375q-0.34375 0.90625 -0.34375 2.609375l0 6.453125l-2.109375 0zm28.523438 -4.015625l2.171875 0.28125q-0.515625 1.90625 -1.90625 2.96875q-1.390625 1.046875 -3.5625 1.046875q-2.734375 0 -4.34375 -1.671875q-1.59375 -1.6875 -1.59375 -4.734375q0 -3.140625 1.609375 -4.875q1.625 -1.734375 4.203125 -1.734375q2.5 0 4.078125 1.703125q1.59375 1.703125 1.59375 4.78125q0 0.1875 -0.015625 0.5625l-9.28125 0q0.109375 2.046875 1.15625 3.140625q1.046875 1.09375 2.609375 1.09375q1.15625 0 1.96875 -0.609375q0.828125 -0.609375 1.3125 -1.953125zm-6.9375 -3.40625l6.953125 0q-0.140625 -1.5625 -0.796875 -2.359375q-1.0 -1.21875 -2.609375 -1.21875q-1.453125 0 -2.453125 0.984375q-0.984375 0.96875 -1.09375 2.59375z" fill-rule="nonzero"/><path fill="#6fa8dc" d="m240.21162 107.43387l6.708664 0l0 48.031494l-6.708664 0z" fill-rule="evenodd"/><path stroke="#000000" stroke-width="1.0" stroke-linejoin="round" stroke-linecap="butt" d="m240.21162 107.43387l6.708664 0l0 48.031494l-6.708664 0z" fill-rule="evenodd"/><path fill="#f6b26b" d="m272.0319 26.114475l6.7086487 0l0 48.031498l-6.7086487 0z" fill-rule="evenodd"/><path stroke="#000000" stroke-width="1.0" stroke-linejoin="round" stroke-linecap="butt" d="m272.0319 26.114475l6.7086487 0l0 48.031498l-6.7086487 0z" fill-rule="evenodd"/><path fill="#cfe2f3" d="m14.015831 61.923096l0 0c0 -21.195072 17.182001 -38.377075 38.377075 -38.377075l0 0c10.178234 0 19.93959 4.0432873 27.136688 11.240387c7.197098 7.197098 11.240387 16.958454 11.240387 27.136688l0 0c0 21.195076 -17.182 38.377075 -38.377075 38.377075l0 0c-21.195074 0 -38.377075 -17.182 -38.377075 -38.377075z" fill-rule="evenodd"/><path stroke="#000000" stroke-width="1.0" stroke-linejoin="round" stroke-linecap="butt" d="m14.015831 61.923096l0 0c0 -21.195072 17.182001 -38.377075 38.377075 -38.377075l0 0c10.178234 0 19.93959 4.0432873 27.136688 11.240387c7.197098 7.197098 11.240387 16.958454 11.240387 27.136688l0 0c0 21.195076 -17.182 38.377075 -38.377075 38.377075l0 0c-21.195074 0 -38.377075 -17.182 -38.377075 -38.377075z" fill-rule="evenodd"/><path fill="#000000" d="m36.02184 70.4631l0 -17.1875l2.265625 0l0 15.15625l8.46875 0l0 2.03125l-10.734375 0zm13.816406 0l0 -17.1875l2.28125 0l0 17.1875l-2.28125 0zm6.4023438 0l0 -17.1875l11.593754 0l0 2.03125l-9.312504 0l0 5.328125l8.062504 0l0 2.015625l-8.062504 0l0 7.8125l-2.28125 0z" fill-rule="nonzero"/><path fill="#000000" fill-opacity="0.0" d="m162.14124 285.88873l292.12598 0" fill-rule="evenodd"/><path stroke="#000000" stroke-width="1.0" stroke-linejoin="round" stroke-linecap="butt" d="m162.14124 285.88873l288.6989 0" fill-rule="evenodd"/><path fill="#000000" stroke="#000000" stroke-width="1.0" stroke-linecap="butt" d="m450.84015 285.88873l-1.1246033 1.1246033l3.0897827 -1.1246033l-3.0897827 -1.1245728z" fill-rule="evenodd"/><path fill="#000000" fill-opacity="0.0" d="m129.29149 176.77165l55.902237 0l0 48.481766l-55.902237 0z" fill-rule="evenodd"/><path fill="#000000" d="m138.26024 208.81166l6.609375 -17.1875l2.453125 0l7.03125 17.1875l-16.09375 0zm3.15625 -2.03125l9.5625 0l-3.71875 -9.78125q-0.828125 -2.203125 -1.21875 -3.5625q-0.3125 1.59375 -0.921875 3.28125l-3.703125 10.0625zm16.78125 2.03125l-3.796875 -12.453125l2.171875 0l1.984375 7.1875l0.734375 2.671875q0.046875 -0.203125 0.640625 -2.5625l1.984375 -7.296875l2.171875 0l1.859375 7.21875l0.625 2.390625l0.71875 -2.40625l2.125 -7.203125l2.046875 0l-3.890625 12.453125l-2.1875 0l-1.984375 -7.453125l-0.46875 -2.125l-2.53125 9.578125l-2.203125 0z" fill-rule="nonzero"/><path fill="#6fa8dc" d="m417.278 107.43387l6.7086487 0l0 48.031494l-6.7086487 0z" fill-rule="evenodd"/><path stroke="#000000" stroke-width="1.0" stroke-linejoin="round" stroke-linecap="butt" d="m417.278 107.43387l6.7086487 0l0 48.031494l-6.7086487 0z" fill-rule="evenodd"/><path fill="#f6b26b" d="m388.2715 26.114475l6.708679 0l0 48.031498l-6.708679 0z" fill-rule="evenodd"/><path stroke="#000000" stroke-width="1.0" stroke-linejoin="round" stroke-linecap="butt" d="m388.2715 26.114475l6.708679 0l0 48.031498l-6.708679 0z" fill-rule="evenodd"/><path fill="#000000" fill-opacity="0.0" d="m197.7638 198.76204l75.69467 0l8.408966 -24.328964l7.571045 24.524155l98.26056 0l6.3072205 21.09375l6.6495667 -21.535934l53.626343 0" fill-rule="evenodd"/><path stroke="#000000" stroke-width="1.0" stroke-linejoin="round" stroke-linecap="butt" d="m197.7638 198.76204l75.69467 0l8.408966 -24.328964l7.571045 24.524155l98.26056 0l6.3072205 21.09375l6.6495667 -21.535934l53.626343 0" fill-rule="evenodd"/><path fill="#000000" fill-opacity="0.0" d="m192.29465 15.584874l0 292.32077" fill-rule="evenodd"/><path stroke="#000000" stroke-width="1.0" stroke-linejoin="round" stroke-linecap="butt" d="m192.29465 15.584874l0 292.32077" fill-rule="evenodd"/><path fill="#b6d7a8" d="m35.46536 122.73252l34.677204 0l0 33.76519l-34.677204 0z" fill-rule="evenodd"/><path stroke="#000000" stroke-width="1.0" stroke-linejoin="round" stroke-linecap="butt" d="m35.46536 122.73252l34.677204 0l0 33.76519l-34.677204 0z" fill-rule="evenodd"/><path fill="#000000" d="m48.34036 148.15512l-3.796875 -12.453125l2.171875 0l1.984375 7.1875l0.734375 2.671875q0.046875 -0.203125 0.640625 -2.5625l1.984375 -7.296875l2.171875 0l1.859375 7.21875l0.625 2.390625l0.71875 -2.40625l2.125 -7.203125l2.046875 0l-3.890625 12.453125l-2.1875 0l-1.984375 -7.453125l-0.46875 -2.125l-2.53125 9.578125l-2.203125 0z" fill-rule="nonzero"/><path fill="#000000" fill-opacity="0.0" d="m52.803963 122.73252l-0.40945053 -22.425194" fill-rule="evenodd"/><path stroke="#000000" stroke-width="1.0" stroke-linejoin="round" stroke-linecap="butt" d="m52.80396 122.73253l-0.2999153 -16.4262" fill-rule="evenodd"/><path fill="#000000" stroke="#000000" stroke-width="1.0" stroke-linecap="butt" d="m54.1555 106.27618l-1.7342987 -4.507187l-1.568615 4.5674973z" fill-rule="evenodd"/><path fill="#000000" fill-opacity="0.0" d="m184.10269 139.61513l-113.95277 0" fill-rule="evenodd"/><path stroke="#000000" stroke-width="1.0" stroke-linejoin="round" stroke-linecap="butt" d="m184.10269 139.61511l-107.95276 0" fill-rule="evenodd"/><path fill="#000000" stroke="#000000" stroke-width="1.0" stroke-linecap="butt" d="m76.149925 137.96338l-4.5380936 1.6517334l4.5380936 1.6517334z" fill-rule="evenodd"/><path fill="#000000" fill-opacity="0.0" d="m129.29149 201.01253l-76.472435 0l0 -44.503937" fill-rule="evenodd"/><path stroke="#000000" stroke-width="1.0" stroke-linejoin="round" stroke-linecap="butt" d="m129.29149 201.01253l-76.47244 0l0 -41.076843" fill-rule="evenodd"/><path fill="#000000" stroke="#000000" stroke-width="1.0" stroke-linecap="butt" d="m52.81905 159.93568l1.1245842 1.124588l-1.1245842 -3.0897675l-1.1245804 3.0897675z" fill-rule="evenodd"/><path fill="#000000" fill-opacity="0.0" d="m48.000084 235.08661l143.66272 0l0 42.53296l-143.66272 0z" fill-rule="evenodd"/><path fill="#000000" d="m59.683002 250.5931l0 -17.1875l7.609371 0q2.296875 0 3.484375 0.46875q1.203125 0.46875 1.921875 1.640625q0.71875 1.171875 0.71875 2.578125q0 1.828125 -1.1875 3.09375q-1.1875 1.25 -3.65625 1.59375q0.90625 0.421875 1.375 0.84375q1.0 0.921875 1.890625 2.296875l2.984375 4.671875l-2.859375 0l-2.28125 -3.578125q-0.984375 -1.546875 -1.640625 -2.359375q-0.640625 -0.828125 -1.15625 -1.15625q-0.5 -0.328125 -1.03125 -0.453125q-0.390625 -0.078125 -1.265625 -0.078125l-2.6406212 0l0 7.625l-2.265625 0zm2.265625 -9.59375l4.890621 0q1.5625 0 2.4375 -0.328125q0.875 -0.328125 1.328125 -1.03125q0.46875 -0.703125 0.46875 -1.546875q0 -1.21875 -0.890625 -2.0q-0.875 -0.78125 -2.796875 -0.78125l-5.437496 0l0 5.6875zm22.878902 8.0625q-1.171875 0.984375 -2.265625 1.40625q-1.078125 0.40625 -2.3125 0.40625q-2.046875 0 -3.15625 -1.0q-1.09375 -1.0 -1.09375 -2.5625q0 -0.921875 0.40625 -1.671875q0.421875 -0.75 1.09375 -1.203125q0.671875 -0.46875 1.515625 -0.703125q0.625 -0.15625 1.875 -0.3125q2.5625 -0.3125 3.765625 -0.734375q0.015625 -0.421875 0.015625 -0.546875q0 -1.28125 -0.609375 -1.8125q-0.796875 -0.71875 -2.390625 -0.71875q-1.5 0 -2.203125 0.53125q-0.703125 0.515625 -1.046875 1.84375l-2.0625 -0.28125q0.28125 -1.328125 0.921875 -2.140625q0.640625 -0.8125 1.859375 -1.25q1.21875 -0.453125 2.828125 -0.453125q1.59375 0 2.59375 0.375q1.0 0.375 1.46875 0.953125q0.46875 0.5625 0.65625 1.4375q0.09375 0.53125 0.09375 1.9375l0 2.8125q0 2.9375 0.140625 3.71875q0.140625 0.78125 0.53125 1.5l-2.203125 0q-0.328125 -0.65625 -0.421875 -1.53125zm-0.171875 -4.71875q-1.15625 0.46875 -3.453125 0.796875q-1.296875 0.1875 -1.84375 0.421875q-0.53125 0.234375 -0.828125 0.6875q-0.28125 0.453125 -0.28125 1.0q0 0.84375 0.625 1.40625q0.640625 0.5625 1.875 0.5625q1.21875 0 2.171875 -0.53125q0.953125 -0.53125 1.390625 -1.453125q0.34375 -0.71875 0.34375 -2.109375l0 -0.78125zm10.003906 4.359375l0.3125 1.859375q-0.890625 0.203125 -1.59375 0.203125q-1.15625 0 -1.796875 -0.359375q-0.625 -0.375 -0.890625 -0.96875q-0.25 -0.59375 -0.25 -2.484375l0 -7.171875l-1.546875 0l0 -1.640625l1.546875 0l0 -3.078125l2.09375 -1.265625l0 4.34375l2.125 0l0 1.640625l-2.125 0l0 7.28125q0 0.90625 0.109375 1.171875q0.125 0.25 0.375 0.40625q0.25 0.140625 0.71875 0.140625q0.34375 0 0.921875 -0.078125zm10.589844 -2.125l2.171875 0.28125q-0.515625 1.90625 -1.90625 2.96875q-1.390625 1.046875 -3.5625 1.046875q-2.734375 0 -4.34375 -1.671875q-1.59375 -1.6875 -1.59375 -4.734375q0 -3.140625 1.609375 -4.875q1.625 -1.734375 4.203125 -1.734375q2.5 0 4.078125 1.703125q1.59375 1.703125 1.59375 4.78125q0 0.1875 -0.015625 0.5625l-9.28125 0q0.109375 2.046875 1.15625 3.140625q1.046875 1.09375 2.609375 1.09375q1.15625 0 1.96875 -0.609375q0.828125 -0.609375 1.3125 -1.953125zm-6.9375 -3.40625l6.953125 0q-0.140625 -1.5625 -0.796875 -2.359375q-1.0 -1.21875 -2.609375 -1.21875q-1.453125 0 -2.453125 0.984375q-0.984375 0.96875 -1.09375 2.59375zm10.941406 2.265625l0 -2.125l6.4843826 0l0 2.125l-6.4843826 0zm10.75782 5.15625l-1.953125 0l0 -17.1875l2.109375 0l0 6.140625q1.328125 -1.6875 3.40625 -1.6875q1.140625 0 2.171875 0.46875q1.03125 0.46875 1.6875 1.3125q0.6562424 0.828125 1.0312424 2.015625q0.375 1.171875 0.375 2.53125q0 3.1875 -1.5781174 4.9375q-1.578125 1.75 -3.796875 1.75q-2.203125 0 -3.453125 -1.84375l0 1.5625zm-0.03125 -6.3125q0 2.234375 0.609375 3.234375q1.0 1.625 2.703125 1.625q1.375 0 2.375 -1.203125q1.015625 -1.203125 1.015625 -3.578125q0 -2.4375 -0.96875 -3.59375q-0.953125 -1.171875 -2.328125 -1.171875q-1.390625 0 -2.40625 1.203125q-1.0 1.203125 -1.0 3.484375zm19.550774 4.78125q-1.171875 0.984375 -2.265625 1.40625q-1.078125 0.40625 -2.3125 0.40625q-2.046875 0 -3.15625 -1.0q-1.09375 -1.0 -1.09375 -2.5625q0 -0.921875 0.40625 -1.671875q0.421875 -0.75 1.09375 -1.203125q0.671875 -0.46875 1.515625 -0.703125q0.625 -0.15625 1.875 -0.3125q2.5625 -0.3125 3.765625 -0.734375q0.015625 -0.421875 0.015625 -0.546875q0 -1.28125 -0.609375 -1.8125q-0.796875 -0.71875 -2.390625 -0.71875q-1.5 0 -2.203125 0.53125q-0.703125 0.515625 -1.046875 1.84375l-2.0625 -0.28125q0.28125 -1.328125 0.921875 -2.140625q0.640625 -0.8125 1.859375 -1.25q1.21875 -0.453125 2.828125 -0.453125q1.59375 0 2.59375 0.375q1.0 0.375 1.46875 0.953125q0.46875 0.5625 0.65625 1.4375q0.09375 0.53125 0.09375 1.9375l0 2.8125q0 2.9375 0.140625 3.71875q0.140625 0.78125 0.53125 1.5l-2.203125 0q-0.328125 -0.65625 -0.421875 -1.53125zm-0.171875 -4.71875q-1.15625 0.46875 -3.453125 0.796875q-1.296875 0.1875 -1.84375 0.421875q-0.53125 0.234375 -0.828125 0.6875q-0.28125 0.453125 -0.28125 1.0q0 0.84375 0.625 1.40625q0.640625 0.5625 1.875 0.5625q1.21875 0 2.171875 -0.53125q0.953125 -0.53125 1.390625 -1.453125q0.34375 -0.71875 0.34375 -2.109375l0 -0.78125zm4.5507812 2.53125l2.09375 -0.328125q0.171875 1.25 0.96875 1.921875q0.8125 0.671875 2.25 0.671875q1.453125 0 2.15625 -0.59375q0.703125 -0.59375 0.703125 -1.390625q0 -0.71875 -0.625 -1.125q-0.421875 -0.28125 -2.15625 -0.71875q-2.3125 -0.578125 -3.21875 -1.0q-0.890625 -0.4375 -1.359375 -1.1875q-0.453125 -0.765625 -0.453125 -1.671875q0 -0.828125 0.375 -1.53125q0.390625 -0.71875 1.046875 -1.1875q0.484375 -0.359375 1.328125 -0.609375q0.859375 -0.265625 1.828125 -0.265625q1.46875 0 2.578125 0.421875q1.109375 0.421875 1.625 1.15625q0.53125 0.71875 0.734375 1.921875l-2.0625 0.28125q-0.140625 -0.96875 -0.8125 -1.5q-0.671875 -0.546875 -1.90625 -0.546875q-1.453125 0 -2.078125 0.484375q-0.625 0.484375 -0.625 1.125q0 0.40625 0.265625 0.734375q0.25 0.34375 0.8125 0.5625q0.3125 0.125 1.859375 0.546875q2.234375 0.59375 3.109375 0.984375q0.890625 0.375 1.390625 1.109375q0.515625 0.71875 0.515625 1.796875q0 1.046875 -0.625 1.984375q-0.609375 0.9375 -1.765625 1.453125q-1.15625 0.5 -2.625 0.5q-2.421875 0 -3.703125 -1.0q-1.265625 -1.015625 -1.625 -3.0zm21.375 -0.296875l2.171875 0.28125q-0.515625 1.90625 -1.90625 2.96875q-1.390625 1.046875 -3.5625 1.046875q-2.734375 0 -4.34375 -1.671875q-1.59375 -1.6875 -1.59375 -4.734375q0 -3.140625 1.609375 -4.875q1.625 -1.734375 4.203125 -1.734375q2.5 0 4.078125 1.703125q1.59375 1.703125 1.59375 4.78125q0 0.1875 -0.015625 0.5625l-9.28125 0q0.109375 2.046875 1.15625 3.140625q1.046875 1.09375 2.609375 1.09375q1.15625 0 1.96875 -0.609375q0.828125 -0.609375 1.3125 -1.953125zm-6.9375 -3.40625l6.953125 0q-0.140625 -1.5625 -0.796875 -2.359375q-1.0 -1.21875 -2.609375 -1.21875q-1.453125 0 -2.453125 0.984375q-0.984375 0.96875 -1.09375 2.59375zm19.832031 7.421875l0 -1.578125q-1.1875 1.859375 -3.484375 1.859375q-1.484375 0 -2.734375 -0.8125q-1.25 -0.828125 -1.9375 -2.296875q-0.671875 -1.46875 -0.671875 -3.390625q0 -1.859375 0.609375 -3.375q0.625 -1.515625 1.859375 -2.328125q1.25 -0.8125 2.78125 -0.8125q1.125 0 2.0 0.484375q0.890625 0.46875 1.4375 1.234375l0 -6.171875l2.09375 0l0 17.1875l-1.953125 0zm-6.671875 -6.21875q0 2.390625 1.0 3.578125q1.015625 1.1875 2.390625 1.1875q1.390625 0 2.34375 -1.125q0.96875 -1.140625 0.96875 -3.453125q0 -2.5625 -0.984375 -3.75q-0.984375 -1.203125 -2.421875 -1.203125q-1.40625 0 -2.359375 1.15625q-0.9375 1.140625 -0.9375 3.609375z" fill-rule="nonzero"/><path fill="#000000" d="m103.118546 279.3931l6.609375 -17.1875l2.4531326 0l7.03125 17.1875l-16.093758 0zm3.15625 -2.03125l9.562508 0l-3.71875 -9.78125q-0.8281326 -2.203125 -1.2187576 -3.5625q-0.3125 1.59375 -0.921875 3.28125l-3.703125 10.0625zm16.781258 2.03125l-3.796875 -12.453125l2.171875 0l1.984375 7.1875l0.734375 2.671875q0.046875 -0.203125 0.640625 -2.5625l1.984375 -7.296875l2.1718674 0l1.859375 7.21875l0.625 2.390625l0.71875 -2.40625l2.125 -7.203125l2.046875 0l-3.890625 12.453125l-2.1875 0l-1.984375 -7.453125l-0.46874237 -2.125l-2.53125 9.578125l-2.203125 0z" fill-rule="nonzero"/><path fill="#000000" fill-opacity="0.0" d="m90.76998 61.923096l94.173225 0" fill-rule="evenodd"/><path stroke="#000000" stroke-width="1.0" stroke-linejoin="round" stroke-linecap="butt" d="m90.76998 61.923096l88.173225 0" fill-rule="evenodd"/><path fill="#000000" stroke="#000000" stroke-width="1.0" stroke-linecap="butt" d="m178.9432 63.57483l4.538086 -1.6517334l-4.538086 -1.6517334z" fill-rule="evenodd"/></g></svg>